<?xml version="1.0" standalone="no"?>
<!DOCTYPE svg PUBLIC "-//W3C//DTD SVG 20010904//EN"
 "http://www.w3.org/TR/2001/REC-SVG-20010904/DTD/svg10.dtd">
<svg version="1.0" xmlns="http://www.w3.org/2000/svg"
 width="1536.000000pt" height="1024.000000pt" viewBox="0 0 1536.000000 1024.000000"
 preserveAspectRatio="xMidYMid meet">

<g transform="translate(0.000000,1024.000000) scale(0.100000,-0.100000)"
fill="#000000" stroke="none">
<path d="M5205 9011 c-3 -5 18 -51 45 -103 54 -98 78 -131 65 -89 -9 28 -95
201 -100 201 -2 0 -6 -4 -10 -9z"/>
<path d="M9977 8923 c-4 -3 -7 -11 -7 -17 0 -6 5 -5 12 2 6 6 9 14 7 17 -3 3
-9 2 -12 -2z"/>
<path d="M4906 8881 c-6 -9 45 -48 181 -139 34 -23 65 -42 69 -42 15 0 -26 36
-120 104 -122 88 -123 89 -130 77z"/>
<path d="M9695 8800 c3 -5 16 -15 28 -22 19 -10 20 -9 9 4 -10 13 -10 17 0 21
7 3 0 6 -15 6 -16 1 -26 -3 -22 -9z"/>
<path d="M9838 8773 c7 -3 16 -2 19 1 4 3 -2 6 -13 5 -11 0 -14 -3 -6 -6z"/>
<path d="M9870 8766 c0 -2 7 -6 15 -10 8 -3 15 -1 15 4 0 6 -7 10 -15 10 -8 0
-15 -2 -15 -4z"/>
<path d="M10058 8763 c7 -3 16 -2 19 1 4 3 -2 6 -13 5 -11 0 -14 -3 -6 -6z"/>
<path d="M10098 8763 c7 -3 16 -2 19 1 4 3 -2 6 -13 5 -11 0 -14 -3 -6 -6z"/>
<path d="M9804 8726 c10 -9 24 -17 30 -19 7 -3 3 -13 -9 -27 l-20 -24 27 20
c15 10 28 22 28 25 0 3 -17 13 -37 22 -28 13 -33 14 -19 3z"/>
<path d="M10090 8730 c-8 -5 -10 -10 -5 -10 6 0 17 5 25 10 8 5 11 10 5 10 -5
0 -17 -5 -25 -10z"/>
<path d="M9986 8665 c9 -14 18 -25 20 -25 2 0 -2 11 -8 25 -6 14 -15 25 -20
25 -5 0 -1 -11 8 -25z"/>
<path d="M9889 8643 c-13 -16 -12 -17 4 -4 15 12 21 11 45 -10 l27 -24 -24 28
c-29 32 -34 33 -52 10z"/>
<path d="M9717 8559 c-21 -22 -37 -43 -37 -45 0 -3 14 2 30 11 17 9 30 23 30
33 0 10 5 23 12 30 7 7 10 12 7 12 -3 0 -22 -18 -42 -41z"/>
<path d="M10360 8593 c-8 -3 -30 -12 -48 -19 l-33 -13 38 -55 c21 -31 42 -55
46 -56 5 0 -8 23 -28 50 -21 28 -35 53 -33 56 3 2 29 13 59 23 30 11 45 20 34
19 -11 0 -27 -2 -35 -5z"/>
<path d="M4860 8560 c0 -12 25 -17 125 -25 44 -4 91 -9 105 -12 19 -4 22 -3
14 6 -6 7 -56 18 -110 26 -120 17 -134 18 -134 5z"/>
<path d="M10060 8550 c6 -11 13 -20 16 -20 2 0 0 9 -6 20 -6 11 -13 20 -16 20
-2 0 0 -9 6 -20z"/>
<path d="M6605 8514 c-233 -35 -495 -79 -645 -109 -91 -18 -166 -29 -168 -24
-5 14 -22 11 -19 -3 1 -7 -5 -12 -13 -13 -10 0 -14 -9 -12 -25 1 -15 -5 -30
-15 -38 -15 -11 -15 -14 -4 -21 11 -7 12 -22 8 -63 -3 -29 -13 -116 -21 -193
-14 -132 -28 -236 -46 -350 -9 -57 -5 -71 17 -53 13 11 14 6 10 -40 -3 -29 -3
-52 -1 -52 3 0 16 8 30 17 92 60 219 119 324 149 276 81 564 -4 657 -194 24
-49 28 -69 28 -142 0 -74 -5 -93 -31 -150 -63 -133 -171 -239 -309 -305 -122
-58 -215 -79 -345 -79 -119 -1 -245 25 -293 59 -27 19 -38 19 -31 1 3 -8 31
-26 62 -41 31 -14 80 -37 107 -51 47 -22 48 -23 15 -18 -54 9 -162 62 -192 95
-15 16 -35 29 -45 28 -17 0 -17 -1 0 -12 64 -42 119 -89 97 -83 -14 4 -36 9
-50 11 -14 1 -33 6 -42 10 -11 4 -18 3 -18 -4 0 -6 7 -11 15 -11 8 0 19 -8 24
-19 15 -27 126 -68 234 -87 158 -27 326 -8 483 56 242 99 410 281 463 503 15
63 14 119 -4 195 -35 150 -130 255 -281 314 -191 74 -365 76 -597 7 -55 -17
-119 -39 -140 -50 -22 -10 -41 -18 -43 -16 -2 2 1 28 31 262 35 271 38 284 54
289 9 3 50 12 91 21 41 9 102 23 135 30 83 19 266 50 415 71 69 9 130 21 135
26 11 10 -3 8 -235 -29 -132 -21 -269 -46 -378 -69 -20 -4 -23 -3 -12 5 17 10
151 44 245 60 167 30 376 61 408 61 20 0 39 5 42 10 8 13 9 13 -110 -5 -197
-30 -308 -45 -312 -41 -5 4 148 33 222 42 66 7 165 30 174 40 3 4 -5 4 -19 0
-14 -3 -70 -13 -125 -21 -91 -14 -246 -42 -519 -96 -103 -20 -123 -22 -114
-14 21 22 345 91 583 125 195 29 197 29 190 40 -3 6 -9 9 -13 9 -4 -1 -47 -8
-97 -15z m-595 -118 c0 -2 -44 -19 -97 -37 -54 -17 -104 -34 -110 -37 -8 -2
-13 4 -13 16 0 17 14 22 98 40 106 22 122 24 122 18z m-237 -76 c-7 -28 -13
-25 -13 6 0 14 4 23 9 20 5 -3 7 -15 4 -26z m228 11 c-11 -7 -9 -10 10 -13 21
-3 18 -6 -16 -16 -57 -17 -122 -26 -112 -16 5 5 30 14 55 21 l47 12 -50 -6
c-60 -7 -56 4 6 16 63 13 78 13 60 2z m-135 -59 c-11 -10 -15 4 -8 28 l7 25 3
-23 c2 -13 1 -26 -2 -30z m-69 -9 c-3 -10 -5 -4 -5 12 0 17 2 24 5 18 2 -7 2
-21 0 -30z m39 0 c-11 -11 -17 4 -9 23 7 18 8 18 11 1 2 -10 1 -21 -2 -24z
m-69 -5 c-3 -8 -6 -5 -6 6 -1 11 2 17 5 13 3 -3 4 -12 1 -19z m68 -35 c-9 -37
-45 -275 -51 -337 -3 -27 -9 -57 -15 -65 -11 -19 -1 145 11 169 4 8 13 56 19
105 20 148 21 155 33 155 6 0 8 -10 3 -27z m32 5 c-3 -13 -11 -63 -17 -113 -5
-49 -17 -135 -25 -190 -8 -55 -19 -127 -23 -159 -4 -33 -13 -61 -19 -63 -14
-5 -15 -12 16 167 11 63 22 149 26 190 8 102 26 190 37 190 6 0 8 -10 5 -22z
m-68 -25 c-1 -24 -3 -31 -7 -18 -3 11 -13 -27 -23 -85 -30 -180 -58 -363 -61
-404 -2 -22 -8 -41 -14 -43 -13 -4 -10 26 27 267 42 273 47 303 62 312 17 11
17 12 16 -29z m656 -405 c3 -2 -75 -10 -172 -16 -97 -6 -179 -15 -182 -19 -10
-14 -150 -55 -166 -49 -9 3 -36 -4 -60 -15 -48 -23 -60 -35 -22 -24 15 5 19 4
12 -3 -5 -5 -19 -13 -30 -16 -16 -5 -21 -1 -21 15 0 31 112 79 194 84 60 3 97
14 56 16 -10 1 -3 5 16 9 111 25 147 30 176 24 17 -3 34 -2 37 3 5 9 153 1
162 -9z m-695 -57 c0 -36 -4 -51 -16 -55 -13 -5 -14 -2 -8 11 4 10 9 35 12 56
6 52 12 46 12 -12z m777 33 c-3 -3 -12 -4 -19 -1 -8 3 -5 6 6 6 11 1 17 -2 13
-5z m-82 -19 c32 -10 35 -13 15 -14 -14 0 -47 6 -75 13 -47 13 -48 14 -15 14
19 0 53 -5 75 -13z m273 -80 c95 -86 146 -206 143 -335 -1 -24 -6 -47 -12 -51
-6 -3 -12 -29 -13 -58 -1 -28 -6 -54 -10 -58 -4 -5 -5 6 -1 22 4 19 -9 2 -35
-45 -130 -233 -248 -328 -483 -390 -61 -16 -66 -19 -37 -21 l35 -1 -40 -9
c-22 -4 -82 -13 -133 -19 -135 -16 -306 13 -414 71 -41 22 -6 19 103 -10 63
-16 132 -32 155 -34 23 -2 46 -7 52 -11 15 -9 203 5 196 15 -2 4 -11 6 -18 3
-8 -3 -17 -1 -21 5 -4 7 5 11 23 11 74 0 226 68 353 158 122 87 129 94 154
142 14 27 36 66 50 86 15 21 24 46 22 56 -3 9 0 16 6 15 32 -7 27 134 -9 200
-13 25 -24 53 -23 62 0 11 4 9 11 -6 11 -22 28 -31 28 -15 0 16 -41 73 -49 68
-5 -3 -11 5 -13 19 -4 21 -2 23 13 15 27 -15 59 -74 60 -111 0 -19 7 -61 15
-94 l14 -60 -6 70 c-12 154 -57 231 -198 340 -42 32 -76 59 -76 61 0 2 22 -6
50 -18 27 -11 76 -44 108 -73z m-149 64 c50 -30 30 -34 -31 -6 -42 20 -48 25
-28 26 14 1 40 -8 59 -20z m-39 -31 c41 -11 90 -31 108 -44 17 -14 32 -20 32
-14 0 17 37 -7 51 -32 11 -21 11 -21 -20 1 -17 12 -31 19 -31 16 0 -4 -26 8
-57 26 -72 40 -56 20 29 -35 l63 -41 34 -101 35 -101 -23 -89 c-39 -157 -91
-245 -199 -337 -67 -57 -195 -121 -284 -142 -35 -8 -97 -14 -138 -13 -41 0
-64 3 -50 5 105 16 196 39 259 64 372 149 524 537 290 742 -65 57 -141 95
-216 107 -31 5 -58 12 -62 16 -10 10 97 -7 179 -28z m-746 -61 c-3 -9 -11 -17
-16 -17 -6 0 -7 7 -4 16 3 9 6 21 6 27 0 8 3 8 10 1 6 -6 8 -18 4 -27z m-34
-6 c0 -11 -4 -23 -10 -26 -6 -4 -10 5 -10 19 0 14 5 26 10 26 6 0 10 -9 10
-19z m-41 -45 c-9 -8 -10 -7 -5 7 3 10 7 24 7 30 1 7 3 4 6 -7 3 -10 -1 -23
-8 -30z m31 -11 c0 -2 -10 -9 -22 -15 -22 -11 -22 -10 -4 4 21 17 26 19 26 11z
m1035 -337 c-9 -29 -27 -73 -41 -98 -14 -25 -22 -36 -19 -25 53 168 70 216 73
198 2 -12 -4 -45 -13 -75z m-55 -158 c0 -5 -5 -10 -11 -10 -5 0 -7 5 -4 10 3
6 8 10 11 10 2 0 4 -4 4 -10z m-32 -52 c-8 -12 -25 -29 -38 -37 -23 -15 -23
-14 4 22 30 39 59 52 34 15z m-710 -234 c52 -11 113 -15 189 -12 70 2 106 0
96 -6 -9 -5 -82 -10 -162 -10 -133 -1 -150 1 -186 21 -48 27 -38 28 63 7z
m175 -61 c-7 -2 -19 -2 -25 0 -7 3 -2 5 12 5 14 0 19 -2 13 -5z"/>
<path d="M5950 7734 l-25 -15 25 7 c14 3 32 10 40 15 13 7 13 8 0 8 -8 0 -26
-6 -40 -15z"/>
<path d="M6567 6901 c-41 -26 -46 -36 -10 -17 17 9 35 20 38 26 8 13 6 12 -28
-9z"/>
<path d="M10080 8504 c0 -8 5 -12 10 -9 6 4 8 11 5 16 -9 14 -15 11 -15 -7z"/>
<path d="M7700 8471 c-93 -22 -120 -33 -174 -71 -104 -71 -210 -199 -279 -335
-29 -59 -89 -235 -108 -320 -18 -82 -19 -403 0 -470 73 -270 207 -418 410
-455 130 -23 267 28 380 142 64 64 155 207 190 296 78 203 110 383 106 592 -4
171 -26 277 -83 399 -48 101 -116 169 -206 205 -90 36 -144 40 -236 17z m206
-18 c70 -22 140 -76 186 -143 37 -54 102 -213 95 -233 -1 -5 -20 26 -41 69
-63 130 -100 179 -163 222 -93 62 -137 75 -245 70 -124 -5 -188 -38 -298 -155
-170 -180 -280 -495 -280 -805 0 -61 4 -110 10 -113 6 -3 10 -23 11 -43 0 -20
5 -46 10 -57 8 -17 9 -16 6 8 -3 15 0 27 6 27 5 0 7 -16 4 -38 -5 -40 9 -75
63 -167 29 -49 23 -45 -25 19 -20 26 -38 56 -40 66 -11 58 -29 98 -41 93 -10
-4 -14 3 -13 23 l1 29 8 -25 8 -25 1 28 c1 15 -6 42 -15 59 -14 26 -16 55 -11
172 13 362 136 652 347 822 56 46 150 92 215 107 47 11 152 6 201 -10z m5 -57
c63 -31 133 -86 150 -119 8 -15 0 -11 -25 13 -21 19 -40 35 -44 35 -4 0 -6 4
-4 8 1 4 -27 22 -64 38 -54 25 -74 29 -109 24 -25 -4 -51 -2 -64 4 -80 43 73
40 160 -3z m-226 15 c-6 -4 -31 -14 -58 -21 -56 -15 -77 -36 -26 -25 l34 7
-25 -24 c-49 -44 -70 -61 -70 -55 0 3 10 15 22 27 12 11 18 20 13 20 -5 0 -17
-8 -27 -17 -11 -9 -25 -18 -33 -19 -25 -4 -87 -59 -121 -109 -19 -27 -34 -46
-34 -42 0 54 186 228 280 260 25 9 55 8 45 -2z m44 -25 c-2 -2 -18 -8 -34 -11
-21 -5 -27 -4 -20 3 6 5 19 12 30 14 20 4 32 1 24 -6z m139 -37 c28 -12 50
-24 49 -28 -1 -4 15 -22 36 -41 47 -41 91 -127 119 -229 17 -60 21 -108 22
-231 1 -85 -2 -167 -7 -182 -4 -16 -3 -28 2 -28 28 0 25 311 -4 440 -26 113
-92 233 -164 299 -27 24 -25 24 21 2 15 -8 25 -17 23 -21 -2 -4 7 -18 20 -30
14 -13 25 -28 25 -34 0 -13 52 -88 57 -82 2 2 -12 29 -32 61 -20 31 -34 59
-32 62 6 6 66 -75 68 -91 1 -6 3 -22 5 -36 1 -14 15 -63 30 -110 44 -138 43
-312 -2 -529 l-5 -26 16 25 16 25 -7 -35 c-9 -53 -85 -282 -101 -306 -7 -12
-11 -28 -7 -37 3 -8 0 -26 -7 -39 -25 -49 -111 -144 -156 -175 -60 -41 -172
-83 -219 -83 -44 0 -147 26 -188 47 -46 24 -142 126 -169 180 -47 93 -77 231
-77 349 0 28 -4 43 -10 39 -5 -3 -10 2 -11 12 -2 44 4 99 12 113 6 10 7 -6 4
-45 -5 -43 -3 -56 4 -45 6 8 11 11 11 7 0 -4 5 -51 11 -104 25 -224 123 -440
215 -472 21 -7 55 -24 76 -38 33 -22 42 -24 107 -17 39 3 68 10 66 14 -3 4 2
11 11 14 8 3 12 2 9 -4 -8 -13 11 -13 38 2 29 15 102 77 102 87 0 4 14 25 31
46 41 55 97 141 123 193 12 24 25 42 28 39 7 -7 -31 -91 -59 -129 -14 -20 -18
-33 -11 -35 26 -9 -116 -173 -148 -173 -7 0 -10 -3 -7 -6 29 -28 226 189 204
225 -3 5 3 31 14 57 12 26 19 53 16 61 -3 7 4 34 15 60 12 27 22 66 23 88 2
22 6 65 9 95 5 37 -3 16 -23 -63 -60 -240 -189 -435 -335 -510 -59 -30 -61
-30 -137 -19 -115 17 -187 70 -246 181 -61 114 -83 214 -84 378 0 185 51 399
129 543 134 248 316 357 481 289z m-348 -54 c0 -3 -30 -35 -66 -72 -36 -38
-60 -57 -53 -43 6 13 34 46 61 72 47 46 58 54 58 43z m630 -190 c20 -44 43
-108 50 -141 20 -102 1 -391 -35 -514 -9 -30 -21 -72 -26 -92 -30 -122 -135
-304 -226 -393 -64 -63 -181 -125 -248 -133 -58 -6 -55 13 2 20 85 12 227 110
296 206 36 50 162 282 153 282 -3 0 -15 -18 -26 -40 -11 -22 -22 -40 -25 -40
-6 0 7 31 44 110 31 64 39 96 22 86 -9 -6 0 40 32 154 28 104 35 263 13 329
-9 27 -16 59 -16 70 0 10 -3 27 -6 36 -6 13 -9 14 -16 3 -5 -8 -6 -4 -2 13 3
15 1 30 -5 33 -6 4 -11 16 -11 27 0 11 -9 39 -20 62 -16 31 -17 37 -4 22 9
-11 33 -56 54 -100z m-726 53 c-4 -7 -24 -35 -45 -63 -20 -27 -44 -64 -52 -81
-17 -33 -81 -248 -91 -304 l-6 -35 15 35 c9 19 12 24 9 10 -3 -14 -10 -83 -13
-155 -4 -71 -8 -119 -9 -105 -1 14 -7 75 -12 135 -11 111 -11 111 24 230 54
187 72 229 128 290 48 53 67 69 52 43z m743 -230 c-3 -8 -6 -5 -6 6 -1 11 2
17 5 13 3 -3 4 -12 1 -19z m-934 -74 c-8 -25 -17 -43 -20 -40 -3 2 -1 15 3 28
4 13 8 25 9 28 1 8 16 30 20 30 2 0 -3 -20 -12 -46z m929 -161 c-2 -27 -8 -52
-14 -58 -6 -6 -8 1 -4 20 2 17 5 42 5 58 1 15 4 27 9 27 4 0 6 -21 4 -47z
m-977 -213 c3 -5 1 -10 -4 -10 -6 0 -11 5 -11 10 0 6 2 10 4 10 3 0 8 -4 11
-10z m4 -300 c0 -23 -15 7 -22 45 l-6 30 14 -30 c8 -16 14 -37 14 -45z m75
-119 c25 -38 64 -85 86 -105 45 -40 160 -96 199 -96 14 0 33 -5 41 -11 28 -20
-103 -2 -155 22 -63 28 -164 128 -199 196 -14 29 -26 55 -26 58 0 14 12 0 54
-64z m184 -70 l27 -21 -30 11 c-40 14 -60 33 -96 93 l-30 51 51 -57 c28 -31
63 -66 78 -77z m-58 -45 c0 -5 -16 5 -35 24 -19 19 -35 38 -35 44 0 5 16 -5
35 -24 19 -19 35 -38 35 -44z m215 -7 c5 -5 -8 -9 -32 -9 -24 0 -46 6 -53 15
-12 14 -8 15 31 9 24 -4 48 -10 54 -15z m132 -50 c-21 -11 -46 -19 -55 -17
-10 2 1 11 28 20 62 22 73 21 27 -3z m-159 -6 c34 -3 65 -10 69 -16 9 -15
-116 2 -146 19 -17 10 -19 13 -6 9 11 -3 48 -9 83 -12z"/>
<path d="M7919 7112 c-61 -68 -69 -83 -19 -35 30 29 52 55 49 58 -3 2 -16 -8
-30 -23z"/>
<path d="M8152 7520 c-6 -24 -9 -46 -7 -48 6 -6 27 68 23 80 -3 7 -10 -8 -16
-32z"/>
<path d="M8976 8458 c-60 -11 -157 -55 -213 -96 -59 -44 -160 -166 -210 -253
-84 -147 -140 -345 -151 -536 -4 -62 -4 -113 -1 -113 3 0 9 51 12 113 8 122
43 276 96 413 66 170 213 349 339 413 56 28 132 54 139 47 2 -2 -35 -23 -83
-47 -94 -48 -188 -127 -258 -218 -55 -72 -137 -234 -139 -276 -1 -18 -5 -31
-8 -29 -8 4 -27 -60 -44 -147 -7 -38 -9 -69 -4 -69 5 0 9 -8 9 -17 0 -14 -2
-15 -9 -4 -15 23 -20 -3 -18 -92 2 -47 -1 -83 -5 -81 -23 15 10 -189 45 -276
56 -142 134 -234 242 -285 56 -26 78 -31 150 -34 23 -1 27 -3 15 -11 -24 -16
40 -12 112 6 125 32 211 94 305 218 59 79 158 273 107 210 -15 -19 -16 -19 -9
1 4 11 20 58 36 105 15 47 28 76 28 64 1 -11 -8 -47 -19 -79 -11 -32 -18 -60
-16 -63 3 -2 21 49 41 114 53 172 53 174 54 147 2 -37 -68 -265 -104 -339
-104 -215 -249 -358 -409 -400 -58 -16 -142 -18 -150 -5 -3 5 -22 9 -42 9 -23
0 -66 15 -111 38 -140 71 -244 229 -288 439 l-14 70 5 -58 c17 -177 136 -378
268 -452 85 -47 147 -65 232 -65 125 0 234 49 339 155 86 85 152 189 204 321
54 136 68 184 92 327 18 100 20 148 16 267 -6 152 -22 227 -72 336 -30 66
-113 156 -179 193 -78 45 -215 61 -330 39z m71 -4 c-3 -3 -12 -4 -19 -1 -8 3
-5 6 6 6 11 1 17 -2 13 -5z m236 -37 c137 -64 214 -189 253 -410 15 -88 17
-274 3 -282 -3 -3 -9 57 -12 133 -3 75 -10 151 -16 167 -10 28 -11 27 -6 -12
16 -135 16 -132 -1 -70 -9 31 -20 57 -24 57 -4 0 -5 11 -2 26 2 14 -3 42 -11
62 -19 43 -41 123 -38 135 4 17 -88 134 -126 159 -21 15 -58 32 -83 39 -25 7
-49 17 -55 22 -18 17 63 -1 118 -26z m-138 4 c3 -6 -11 -13 -32 -16 -21 -3
-64 -10 -97 -16 -81 -15 -99 5 -20 21 33 7 64 14 69 15 23 7 74 4 80 -4z m125
-31 c19 -10 47 -31 62 -47 38 -39 89 -148 93 -197 2 -23 11 -68 21 -101 24
-86 25 -339 0 -455 -20 -100 -51 -200 -77 -252 -23 -44 -24 -61 -4 -34 30 39
12 -7 -39 -99 -20 -38 -21 -14 -1 25 9 17 13 30 11 30 -3 0 -13 -15 -22 -32
-28 -55 -90 -133 -135 -169 l-43 -33 53 64 c137 169 223 395 245 643 2 32 0
57 -5 57 -5 0 -9 -24 -9 -54 0 -109 -52 -308 -114 -436 -73 -151 -178 -275
-272 -321 -111 -53 -243 -29 -340 62 -200 190 -220 627 -45 980 97 195 254
330 400 343 117 11 243 -61 303 -171 28 -52 54 -140 67 -231 l9 -57 1 45 c0
25 -6 73 -14 106 -38 162 -120 263 -248 308 -71 24 -71 24 -31 25 79 2 194
-94 258 -214 21 -39 25 -43 21 -20 -4 16 -22 51 -41 78 -19 26 -32 52 -30 56
8 13 -46 59 -115 97 -55 30 -59 34 -29 28 19 -3 51 -14 70 -24z m-341 -39
c-20 -10 -54 -31 -75 -46 -55 -40 -164 -147 -164 -161 0 -6 -15 -31 -34 -55
-19 -23 -32 -47 -30 -51 3 -4 0 -8 -7 -8 -7 0 -10 -3 -7 -6 4 -3 -4 -29 -17
-57 -59 -128 -125 -420 -104 -458 5 -10 9 -34 9 -54 0 -71 53 -247 106 -352
29 -57 48 -103 43 -103 -14 0 -85 102 -108 157 -27 66 -41 132 -51 248 l-8 90
3 -95 c4 -113 27 -240 49 -272 18 -25 21 -42 6 -33 -15 10 -71 127 -66 139 2
6 5 3 5 -6 1 -9 5 -19 9 -22 4 -3 0 34 -10 82 -31 156 -21 316 34 512 31 111
104 283 128 300 12 9 42 72 36 77 -2 3 -12 -9 -21 -26 -8 -17 -20 -31 -25 -31
-6 0 0 16 12 35 13 19 28 33 33 31 6 -2 35 20 66 48 121 110 156 134 199 135
22 0 21 -2 -11 -18z m-134 -56 c-22 -19 -44 -34 -50 -34 -5 -1 8 15 30 34 22
19 45 34 50 34 6 1 -8 -15 -30 -34z m-265 -372 c-11 -17 -11 -17 -6 0 3 10 6
24 7 30 0 9 2 9 5 0 3 -7 0 -20 -6 -30z m969 -58 c0 -33 -4 -78 -8 -100 -7
-30 -9 -10 -9 80 0 75 3 113 8 100 5 -11 9 -47 9 -80z m11 -220 c-14 -78 -37
-145 -51 -145 -12 0 -11 52 2 70 8 11 9 6 4 -20 -4 -22 -3 -30 3 -20 5 8 14
60 21 115 7 55 16 109 19 120 13 40 14 -48 2 -120z m24 -4 c-4 -17 -9 -30 -11
-27 -3 2 -2 19 2 36 4 17 9 30 11 27 2 -2 1 -18 -2 -36z m-172 -433 c-47 -107
-180 -249 -282 -302 -19 -10 28 31 102 89 53 42 146 166 179 238 7 15 14 25
16 23 3 -2 -4 -24 -15 -48z m-124 -129 c-18 -23 -57 -59 -87 -80 -30 -22 -50
-39 -45 -39 17 0 -54 -38 -88 -48 -30 -8 -109 -3 -183 12 l-30 6 30 -14 c17
-9 47 -15 68 -16 21 0 37 -5 37 -11 0 -24 -109 -2 -188 38 -90 45 -111 75 -25
37 65 -29 200 -42 247 -24 17 6 25 6 21 0 -8 -12 1 -12 42 3 18 7 32 15 30 19
-1 3 23 23 53 44 30 20 74 54 97 76 55 49 62 48 21 -3z m-544 -54 c56 -56 53
-77 -4 -29 -27 23 -68 84 -56 84 3 0 29 -25 60 -55z m-94 3 c0 -14 -19 1 -31
25 -12 22 -12 22 10 3 11 -11 21 -23 21 -28z m62 -73 c11 -20 11 -20 -11 0
-13 11 -28 29 -33 40 -11 20 -11 20 11 0 13 -11 28 -29 33 -40z m138 -65 c8
-5 11 -10 5 -10 -5 0 -17 5 -25 10 -8 5 -10 10 -5 10 6 0 17 -5 25 -10z"/>
<path d="M9448 8183 c11 -21 23 -56 27 -76 4 -21 12 -40 17 -43 7 -4 7 6 3 27
-10 46 -41 115 -55 124 -6 4 -3 -10 8 -32z"/>
<path d="M9430 7853 c-3 -29 -1 -48 3 -44 5 5 7 28 5 52 l-3 44 -5 -52z"/>
<path d="M10250 8388 c1 -7 14 -38 31 -68 31 -58 30 -38 -2 36 -20 44 -29 55
-29 32z"/>
<path d="M11026 7552 c-11 -2 -15 -7 -8 -11 8 -5 6 -51 -8 -161 -10 -85 -28
-245 -40 -355 -12 -110 -26 -222 -30 -250 -9 -59 -7 -62 73 -71 37 -4 61 -12
67 -23 6 -10 10 -11 10 -3 0 6 7 12 16 12 8 0 13 4 10 9 -3 5 3 31 14 57 10
27 44 112 74 189 30 77 91 222 134 323 44 100 76 182 71 182 -5 0 -9 7 -9 15
0 8 -2 15 -5 15 -9 0 -337 70 -343 73 -4 2 -16 2 -26 -1z m166 -57 c60 -14
121 -22 133 -19 13 3 32 1 42 -5 15 -9 13 -10 -12 -7 -16 2 -23 1 -15 -1 32
-10 31 -24 -5 -110 -106 -248 -126 -296 -164 -395 -23 -59 -53 -138 -66 -175
-15 -43 -29 -67 -37 -65 -7 2 -31 7 -53 11 -45 8 -45 5 -32 151 10 106 16 130
41 154 12 12 14 15 4 7 -10 -8 -20 -12 -23 -10 -2 3 0 34 5 69 9 65 34 274 44
362 4 31 1 48 -7 51 -34 14 47 4 145 -18z m-163 -109 c-9 -8 -10 -7 -5 7 3 10
7 35 8 55 1 35 2 35 5 -7 3 -26 -1 -48 -8 -55z m342 -13 c-54 -128 -181 -428
-191 -448 -5 -11 -9 -15 -9 -8 -2 21 210 523 221 523 4 0 -6 -30 -21 -67z
m-354 -85 c-3 -7 -5 -2 -5 12 0 14 2 19 5 13 2 -7 2 -19 0 -25z m124 -465
c-12 -20 -14 -14 -5 12 4 9 9 14 11 11 3 -2 0 -13 -6 -23z"/>
<path d="M11040 7219 c0 -5 5 -7 10 -4 6 3 10 8 10 11 0 2 -4 4 -10 4 -5 0
-10 -5 -10 -11z"/>
<path d="M11005 6779 c-4 -6 -5 -12 -2 -15 2 -3 7 2 10 11 7 17 1 20 -8 4z"/>
<path d="M8390 7421 c0 -6 4 -13 10 -16 6 -3 7 1 4 9 -7 18 -14 21 -14 7z"/>
<path d="M4315 6886 c-214 -46 -347 -160 -435 -371 -7 -16 -15 -70 -17 -120
-11 -205 75 -379 240 -486 98 -63 174 -84 302 -83 120 2 185 18 265 69 163
103 253 265 253 455 -1 288 -209 519 -490 544 -32 3 -85 -1 -118 -8z m210 -21
c183 -48 334 -211 376 -406 14 -66 7 -195 -15 -271 -45 -153 -191 -294 -347
-334 -73 -19 -191 -21 -264 -4 -251 57 -418 288 -402 553 4 60 11 92 21 103 9
8 16 23 16 33 0 9 16 44 36 77 119 200 364 305 579 249z"/>
<path d="M4310 6850 c-114 -21 -203 -72 -281 -159 -55 -61 -92 -126 -104 -181
-4 -19 -14 -44 -21 -55 -39 -55 -1 -260 66 -365 37 -58 127 -143 179 -169 168
-86 368 -79 517 17 343 222 278 747 -110 888 -75 27 -178 37 -246 24z m159
-15 c24 -3 78 -20 120 -37 177 -74 294 -264 285 -462 -10 -215 -136 -378 -343
-445 -71 -23 -125 -26 -220 -11 -187 31 -350 184 -391 367 -26 116 3 274 71
376 41 63 128 140 192 172 62 30 169 55 212 50 17 -2 50 -7 74 -10z"/>
<path d="M4477 6563 c-13 -12 -7 -89 9 -111 19 -28 51 -28 59 -1 19 59 -34
146 -68 112z m43 -54 c0 -16 -4 -29 -8 -29 -5 0 -8 15 -8 34 1 41 16 37 16 -5z"/>
<path d="M4164 6465 c-29 -44 3 -131 45 -123 23 4 28 91 6 124 -20 30 -30 30
-51 -1z m46 -41 c0 -14 -4 -23 -10 -19 -5 3 -10 15 -10 26 0 10 5 19 10 19 6
0 10 -12 10 -26z m0 -64 c0 -5 -4 -10 -10 -10 -5 0 -10 5 -10 10 0 6 5 10 10
10 6 0 10 -4 10 -10z"/>
<path d="M4380 6249 c-72 -32 -120 -88 -144 -166 -6 -19 -3 -23 13 -23 13 0
23 11 31 35 24 73 116 134 202 135 58 0 95 -13 131 -48 21 -20 30 -23 39 -14
9 9 3 19 -24 45 -62 58 -165 74 -248 36z m150 0 c12 -8 8 -9 -16 -5 -16 2 -48
1 -69 -4 -45 -10 -59 -5 -24 9 33 13 91 13 109 0z m-150 -23 c0 -8 -72 -58
-76 -53 -3 3 12 17 33 31 38 27 43 29 43 22z m240 -21 c13 -14 19 -25 14 -25
-12 0 -59 50 -47 50 5 0 20 -11 33 -25z m-359 -112 c-8 -15 -10 -15 -11 -2 0
17 10 32 18 25 2 -3 -1 -13 -7 -23z"/>
<path d="M11465 6704 c-126 -60 -118 -70 17 -20 127 46 128 47 128 58 0 5 -5
6 -11 2 -6 -3 -14 -2 -18 3 -3 6 -52 -12 -116 -43z m105 27 c-8 -5 -26 -11
-40 -15 -21 -5 -20 -3 5 9 32 15 60 20 35 6z"/>
<path d="M10935 6536 c-72 -32 -105 -118 -72 -183 18 -33 70 -63 112 -63 52 0
108 43 126 97 31 94 -76 189 -166 149z m114 -27 c18 -11 31 -23 27 -26 -3 -3
-14 2 -25 11 -10 9 -32 21 -47 26 -21 6 -23 9 -9 9 11 1 35 -8 54 -20z m-19
-14 c35 -18 46 -61 30 -111 -29 -86 -159 -72 -166 18 -4 49 4 67 39 89 38 23
59 24 97 4z m-159 -76 c-6 -16 -10 -18 -10 -7 -1 22 12 55 16 42 2 -6 -1 -22
-6 -35z m200 -62 c-10 -9 -11 -8 -5 6 3 10 9 15 12 12 3 -3 0 -11 -7 -18z
m-170 -14 c13 -16 12 -17 -3 -4 -17 13 -22 21 -14 21 2 0 10 -8 17 -17z m106
-39 c-3 -3 -12 -4 -19 -1 -8 3 -5 6 6 6 11 1 17 -2 13 -5z"/>
<path d="M10933 6468 c-24 -32 -24 -41 0 -19 15 14 27 26 27 28 0 8 -19 2 -27
-9z"/>
<path d="M11373 6508 c-6 -11 4 -13 119 -30 96 -14 140 -9 108 12 -8 5 -22 10
-30 11 -8 0 -55 4 -103 7 -49 4 -91 4 -94 0z m195 -25 c-10 -2 -26 -2 -35 0
-10 3 -2 5 17 5 19 0 27 -2 18 -5z"/>
<path d="M8669 6445 c-24 -13 -25 -18 -28 -104 -1 -59 2 -91 8 -91 6 0 11 20
11 45 0 25 3 45 8 45 4 0 31 -20 59 -45 28 -25 54 -41 57 -36 4 5 -16 27 -43
48 -51 39 -61 53 -38 53 20 0 47 33 47 58 0 12 -9 26 -19 32 -25 13 -30 12
-62 -5z m68 -21 c7 -18 -21 -49 -54 -59 -20 -6 -23 -3 -23 22 0 16 5 34 12 41
17 17 58 15 65 -4z"/>
<path d="M9216 6447 c-14 -10 -18 -32 -22 -100 -3 -55 -1 -87 6 -87 5 0 10 18
10 40 0 53 18 52 70 -1 22 -23 44 -39 48 -34 4 4 -14 26 -40 49 l-47 41 28 16
c15 9 31 26 34 38 11 42 -47 67 -87 38z m71 -24 c5 -15 -32 -53 -52 -53 -16 0
-22 50 -8 64 11 11 56 3 60 -11z"/>
<path d="M9398 6448 c-26 -9 -28 -14 -28 -61 0 -29 -3 -69 -6 -89 -5 -25 -3
-38 5 -38 6 0 11 17 11 40 0 51 13 51 66 -1 23 -23 44 -36 48 -31 3 6 -13 27
-36 47 l-43 36 28 21 c32 23 36 62 8 78 -11 5 -21 10 -23 9 -2 0 -15 -5 -30
-11z m57 -32 c0 -12 -13 -28 -32 -39 l-33 -19 0 34 c0 42 7 50 40 46 17 -2 25
-9 25 -22z"/>
<path d="M9711 6447 c-23 -11 -25 -19 -29 -106 -3 -66 -1 -91 7 -87 6 4 11 25
11 47 0 21 3 39 8 39 4 0 31 -21 60 -46 63 -55 70 -43 8 14 l-43 40 28 21 c34
25 39 65 10 81 -25 13 -31 13 -60 -3z m66 -24 c6 -16 -41 -63 -62 -63 -18 0
-20 32 -4 61 11 22 59 23 66 2z"/>
<path d="M7742 6433 c-40 -19 -53 -58 -26 -78 11 -8 26 -15 35 -15 27 0 63
-35 56 -54 -11 -27 -54 -42 -88 -29 -16 6 -29 8 -29 3 0 -17 59 -29 90 -18 66
23 59 76 -15 108 -56 24 -61 34 -28 60 20 16 36 20 58 16 28 -5 29 -5 11 9
-24 18 -23 18 -64 -2z"/>
<path d="M8108 6439 c-15 -8 -18 -25 -18 -104 0 -57 4 -95 10 -95 6 0 10 20
10 45 0 28 4 45 12 45 6 0 34 -18 60 -41 27 -23 52 -39 55 -36 4 5 -52 61 -80
79 -6 4 3 17 21 33 18 15 32 35 32 46 0 33 -63 51 -102 28z m82 -29 c0 -18
-51 -60 -72 -60 -10 0 -11 64 -1 73 3 4 21 7 40 7 26 0 33 -4 33 -20z"/>
<path d="M8530 6443 c-68 -10 -65 -5 -68 -96 -3 -102 3 -110 71 -95 62 13 60
29 -3 21 l-50 -6 0 31 c0 28 4 32 40 42 52 14 52 24 -1 15 l-40 -7 3 34 c3 31
6 34 51 42 26 5 47 13 47 18 0 8 -6 8 -50 1z"/>
<path d="M9020 6443 c-1 -5 -3 -39 -6 -78 -6 -84 1 -115 24 -115 29 0 92 20
92 30 0 5 -14 5 -32 -1 -58 -16 -68 -13 -68 26 0 33 2 35 40 41 57 9 61 25 4
17 -42 -5 -47 -4 -41 11 4 10 7 26 7 37 0 14 7 19 28 20 15 1 38 5 52 9 19 6
9 8 -37 9 -35 1 -63 -2 -63 -6z"/>
<path d="M7932 6431 l-33 -6 -4 -80 c-5 -101 0 -110 56 -101 71 11 84 27 16
20 l-58 -7 3 34 c3 31 7 35 46 43 55 12 54 25 -2 19 -44 -5 -44 -5 -38 23 6
36 17 44 65 44 20 0 37 5 37 10 0 11 -35 11 -88 1z"/>
<path d="M8366 6360 c-16 -44 -31 -80 -35 -80 -4 0 -18 32 -31 71 -24 68 -40
95 -40 67 0 -16 35 -110 56 -151 9 -16 19 -25 24 -21 5 5 20 43 33 84 14 41
28 83 32 93 4 9 3 17 -2 17 -5 0 -22 -36 -37 -80z"/>
<path d="M7121 6378 c-12 -29 -26 -62 -31 -73 -4 -11 -13 -33 -19 -48 -13 -34
-14 -37 -2 -37 5 0 14 15 21 34 8 26 18 35 42 40 51 10 57 7 69 -34 16 -53 29
-42 15 12 -11 43 -61 158 -69 158 -2 0 -14 -24 -26 -52z m42 -5 c2 -10 8 -25
12 -35 5 -12 -1 -18 -25 -23 -17 -4 -34 -5 -36 -2 -6 6 28 77 37 77 4 0 9 -8
12 -17z"/>
<path d="M7300 6329 l0 -102 50 7 c81 11 107 27 33 21 l-63 -6 0 91 c0 53 -4
90 -10 90 -6 0 -10 -40 -10 -101z"/>
<path d="M9541 6404 c-28 -35 -29 -104 -2 -128 59 -53 137 78 81 134 -27 27
-55 25 -79 -6z m78 -24 c11 -33 7 -55 -17 -82 -34 -40 -81 -4 -67 50 16 63 66
82 84 32z"/>
<path d="M6683 6405 l-32 -13 1 -96 c0 -53 4 -96 9 -96 5 0 9 20 9 45 0 25 4
45 8 45 5 0 34 -18 65 -41 32 -22 57 -36 57 -30 0 7 -44 46 -89 78 -2 1 11 14
28 28 37 31 40 58 9 79 -27 19 -25 19 -65 1z m65 -31 c3 -23 -39 -64 -64 -64
-21 0 -18 67 4 79 27 17 57 9 60 -15z"/>
<path d="M6999 6363 c-1 -32 -4 -68 -7 -81 -7 -21 -10 -19 -48 30 -22 29 -43
61 -47 71 -11 30 -27 18 -27 -20 -1 -21 -3 -64 -6 -95 -4 -38 -2 -58 5 -58 6
0 11 32 13 77 l3 77 53 -72 c30 -40 58 -72 63 -72 5 0 9 45 9 100 0 55 -2 100
-5 100 -3 0 -5 -26 -6 -57z"/>
<path d="M6491 6387 l-55 -12 2 -90 c1 -49 6 -93 11 -98 11 -11 108 10 117 25
4 6 -1 8 -12 5 -11 -3 -36 -9 -56 -13 l-38 -6 0 40 c0 41 0 41 45 48 25 3 45
10 45 15 0 11 -5 11 -53 0 l-38 -9 3 36 c3 36 4 37 56 46 28 5 52 13 52 18 0
10 -10 9 -79 -5z"/>
<path d="M6268 6377 c-38 -5 -68 -14 -68 -19 0 -6 16 -7 40 -3 l40 7 0 -96 c0
-62 4 -96 11 -96 7 0 10 30 8 88 -2 48 0 93 4 100 5 6 21 12 38 12 16 0 29 5
29 10 0 11 -9 11 -102 -3z"/>
<path d="M6117 6373 c-2 -5 -3 -43 -2 -85 2 -43 -1 -78 -6 -78 -5 0 -30 31
-56 70 -27 38 -52 68 -58 66 -13 -4 -19 -186 -6 -186 6 0 11 34 13 75 l3 76
53 -71 c29 -38 56 -70 61 -70 11 0 19 200 9 206 -4 2 -9 1 -11 -3z"/>
<path d="M5855 6365 c-5 -2 -36 -9 -69 -15 -34 -7 -54 -16 -49 -21 5 -5 22 -5
41 0 l32 10 1 -57 c0 -31 1 -72 2 -90 2 -29 -1 -33 -30 -38 -18 -3 -33 -11
-33 -16 0 -10 19 -7 113 13 57 13 63 29 7 22 l-40 -6 0 86 0 86 35 7 c19 3 35
10 35 15 0 9 -25 11 -45 4z"/>
<path d="M11360 6319 c48 -42 125 -99 134 -99 3 0 6 5 6 11 0 14 -58 69 -73
69 -6 0 4 -14 23 -31 19 -17 28 -27 20 -23 -25 12 -60 46 -55 54 6 9 -69 60
-87 60 -7 0 7 -19 32 -41z"/>
<path d="M8688 6133 c7 -3 16 -2 19 1 4 3 -2 6 -13 5 -11 0 -14 -3 -6 -6z"/>
<path d="M8738 6133 c6 -2 18 -2 25 0 6 3 1 5 -13 5 -14 0 -19 -2 -12 -5z"/>
<path d="M3430 6005 c0 -5 5 -17 10 -25 5 -8 10 -10 10 -5 0 6 -5 17 -10 25
-5 8 -10 11 -10 5z"/>
<path d="M10420 5990 c-60 -11 -110 -41 -153 -91 -23 -27 -49 -49 -58 -49 -22
0 -102 -53 -127 -85 -56 -71 -52 -169 9 -225 21 -20 35 -41 31 -46 -4 -6 -29
-13 -55 -16 -56 -7 -111 -45 -141 -99 -28 -52 -16 -100 41 -155 37 -36 44 -49
39 -69 -3 -13 -18 -31 -32 -38 -21 -11 -23 -15 -11 -20 26 -10 69 48 61 81 -9
36 -13 42 -28 42 -20 0 -56 43 -66 80 -14 49 18 112 74 145 49 29 106 34 106
9 0 -27 26 7 33 44 5 27 4 32 -12 32 -26 0 -69 53 -77 94 -8 44 12 97 53 146
39 46 85 68 136 66 34 -2 36 0 21 11 -17 12 -17 14 3 41 34 46 104 83 170 89
67 6 107 -9 142 -53 44 -56 14 -174 -45 -174 -13 0 -24 -5 -24 -11 0 -6 9 -8
21 -4 16 6 20 4 13 -6 -7 -12 -5 -12 9 -1 38 31 108 -13 127 -79 37 -128 -113
-274 -265 -257 -29 4 -51 1 -62 -8 -17 -13 -17 -13 0 -14 11 0 32 -14 48 -31
16 -17 29 -28 29 -23 0 4 -12 21 -27 36 l-27 28 61 0 c149 0 278 127 259 255
-9 54 -36 90 -81 106 l-34 13 16 30 c59 113 -44 232 -177 206z"/>
<path d="M9087 5780 c-60 -19 -113 -48 -103 -57 2 -3 18 4 33 15 98 70 283 63
283 -11 0 -32 -39 -77 -66 -77 -33 0 -64 -17 -64 -35 0 -21 33 -18 64 6 18 14
33 18 48 14 31 -10 58 -35 58 -54 0 -27 -30 -61 -54 -61 -22 0 -46 -17 -46
-32 0 -12 48 -10 55 2 10 16 41 11 60 -10 17 -19 17 -52 0 -105 -4 -14 -2 -12
9 5 31 51 11 130 -33 130 -7 0 -11 3 -9 8 2 4 10 19 17 35 19 36 2 74 -39 88
l-30 11 20 25 c72 92 -48 153 -203 103z m139 -155 c-23 -17 -36 -19 -36 -6 0
11 18 19 40 20 11 0 10 -3 -4 -14z m69 -125 c-3 -5 -16 -10 -28 -10 -18 0 -19
2 -7 10 20 13 43 13 35 0z"/>
<path d="M10129 5713 c-13 -17 -13 -17 6 -3 11 8 22 16 24 17 2 2 0 3 -6 3 -6
0 -17 -8 -24 -17z"/>
<path d="M3549 5693 l-24 -28 28 24 c25 23 32 31 24 31 -2 0 -14 -12 -28 -27z"/>
<path d="M7485 5590 c-3 -5 -22 -10 -42 -10 -20 0 -33 -3 -29 -7 4 -4 -35 -28
-86 -53 -116 -57 -498 -261 -498 -266 0 -3 18 5 41 16 23 12 43 19 46 16 5 -4
-89 -56 -102 -56 -4 0 -3 5 1 12 4 6 -29 -8 -74 -32 -45 -24 -78 -48 -75 -53
3 -6 1 -7 -4 -4 -6 4 -40 -9 -75 -29 -144 -82 -238 -125 -259 -119 -15 5 -19
4 -15 -4 4 -6 5 -15 2 -20 -10 -15 -14 -1433 -4 -1423 5 5 11 321 13 702 3
381 7 695 8 697 2 1 26 -4 53 -11 27 -8 103 -27 169 -41 66 -14 196 -44 289
-66 93 -23 177 -38 187 -36 10 3 19 1 21 -5 2 -5 138 -43 302 -84 165 -41 344
-88 398 -105 55 -16 104 -29 110 -27 6 2 -19 12 -56 22 -88 24 -78 32 13 10
58 -14 71 -20 65 -33 -4 -9 -8 -95 -10 -191 -1 -96 -5 -228 -8 -292 -4 -67 -2
-118 3 -118 4 0 12 129 17 287 7 221 12 287 22 291 14 4 14 28 -4 -724 -2
-127 -7 -253 -9 -280 -2 -27 -6 -148 -9 -269 -4 -121 -9 -263 -11 -315 -13
-224 -16 -303 -25 -640 -5 -195 -10 -367 -10 -382 0 -21 -5 -28 -20 -28 -11 0
-20 5 -20 10 0 6 3 10 8 10 4 0 7 42 8 93 1 50 4 191 8 312 3 121 11 391 17
600 5 209 12 402 14 430 7 88 18 600 12 595 -3 -3 -8 -106 -11 -230 -4 -124
-11 -317 -16 -430 -9 -198 -14 -338 -25 -695 -14 -454 -23 -655 -30 -655 -1 0
-164 50 -361 110 -339 104 -611 194 -926 306 l-138 49 -1 125 c-1 408 -4 520
-12 520 -5 0 -7 -143 -5 -337 2 -221 0 -338 -7 -338 -7 0 -10 158 -9 458 1
257 -2 457 -7 455 -5 -2 -11 -106 -13 -233 -3 -126 -10 -281 -16 -344 -9 -85
-9 -116 0 -125 8 -8 10 -7 6 4 -4 8 -2 42 3 75 8 58 9 56 8 -40 0 -55 -2 -90
-4 -77 -2 12 -9 22 -14 22 -6 0 -8 -12 -5 -27 3 -16 8 -61 12 -102 5 -57 3
-75 -7 -82 -10 -6 -11 -9 -1 -9 6 0 12 -7 12 -15 0 -18 17 -20 22 -4 3 9 9 9
24 1 36 -19 237 -83 281 -89 24 -3 43 -10 43 -14 0 -5 11 -9 24 -9 20 0 133
-32 206 -58 8 -3 20 -6 25 -8 6 -1 116 -37 245 -79 376 -122 548 -182 565
-195 6 -4 25 -11 43 -15 17 -3 32 -10 32 -13 0 -4 13 -8 29 -9 21 -1 28 2 27
14 0 10 17 27 44 42 25 14 53 36 64 49 11 14 25 21 34 17 9 -3 29 9 52 32 20
21 61 53 91 71 30 19 81 53 114 77 33 25 82 57 108 72 27 15 76 47 110 70 34
23 80 52 102 64 22 12 42 25 45 29 8 12 68 40 85 40 9 0 14 4 11 9 -3 5 8 14
24 21 16 7 39 21 52 31 12 11 33 22 47 26 14 3 35 14 46 23 33 30 89 60 110
60 11 0 31 12 44 25 16 17 30 24 42 20 13 -5 19 -1 19 10 0 8 7 18 15 21 8 4
15 11 15 16 0 6 -7 7 -16 4 -13 -5 -14 -2 -8 11 4 10 9 81 11 158 2 77 8 271
15 430 6 160 12 322 12 360 1 39 4 72 7 75 10 8 18 150 9 150 -5 0 -11 -28
-13 -62 l-3 -63 -2 68 c-2 54 1 67 13 67 12 0 15 19 16 108 1 59 3 118 4 132
4 39 8 450 7 728 -1 236 -2 252 -19 252 -10 -1 -29 -8 -43 -16 -17 -10 -18
-13 -5 -9 54 19 50 42 48 -305 -1 -177 -6 -326 -9 -332 -4 -7 -3 -8 4 -4 7 4
12 2 12 -3 0 -6 -4 -11 -9 -11 -4 0 -11 -82 -15 -182 -4 -101 -9 -232 -11
-293 -3 -60 -10 -218 -15 -350 -17 -407 -19 -443 -37 -675 l-17 -225 -190
-110 c-274 -159 -684 -420 -761 -484 -11 -10 -60 -41 -110 -71 -49 -30 -104
-64 -122 -78 l-32 -23 5 288 c3 158 9 369 14 468 6 99 14 308 20 465 5 157 12
341 15 410 8 213 26 698 29 840 5 159 3 147 18 132 7 -7 16 -12 22 -12 6 0 5
5 -2 12 -19 19 -15 26 34 47 29 13 43 25 38 32 -4 8 -3 9 5 5 6 -4 44 9 84 30
145 74 678 307 685 299 3 -3 11 0 19 6 10 9 13 4 12 -27 -1 -23 -3 -30 -6 -16
-2 12 -9 22 -14 22 -5 0 -9 -41 -9 -90 0 -98 2 -95 -88 -188 -13 -14 -30 -48
-39 -76 -25 -85 -34 -105 -64 -143 -35 -43 -38 -65 -6 -37 12 11 39 29 60 39
43 23 45 28 15 49 -12 9 -20 18 -17 20 7 8 70 -45 64 -54 -3 -4 11 -17 30 -29
31 -18 35 -24 29 -48 -13 -52 -25 -70 -18 -28 3 22 4 38 1 35 -9 -10 -25 -80
-17 -75 5 3 10 -3 12 -12 3 -10 14 13 26 51 26 80 25 76 9 76 -7 0 -34 22 -60
48 l-47 48 10 53 c11 60 13 63 89 144 30 33 50 62 44 65 -9 6 -2 97 12 177 3
15 30 30 104 60 55 22 96 41 92 43 -5 2 -26 -4 -47 -13 -20 -8 -39 -14 -41
-12 -5 6 190 87 210 87 17 0 18 -13 13 -252 -3 -162 -2 -220 3 -163 12 127 25
333 25 377 0 25 5 39 16 41 12 4 11 5 -2 6 -10 0 -18 8 -18 17 0 10 -5 14 -15
10 -9 -3 -61 6 -116 20 -56 14 -104 23 -107 20 -3 -3 1 -6 9 -6 11 0 11 -2 -1
-10 -12 -8 -10 -10 10 -10 14 0 45 -7 69 -16 25 -8 56 -12 69 -9 22 5 23 4 10
-9 -20 -20 -285 -137 -325 -143 -18 -3 -33 -9 -33 -12 0 -4 -65 -36 -145 -71
-93 -42 -140 -67 -132 -73 8 -5 5 -7 -8 -4 -22 4 -62 -13 -235 -96 -63 -30
-144 -67 -180 -82 -36 -15 -87 -39 -115 -52 -42 -22 -55 -24 -90 -16 -22 6
-184 47 -360 93 -389 100 -1017 256 -1066 265 -19 4 -42 11 -50 16 -12 8 -12
10 1 20 12 8 9 9 -10 4 l-25 -6 25 15 c14 8 28 12 32 10 4 -3 29 7 55 22 27
15 94 51 151 81 60 33 99 59 95 65 -3 6 -1 8 5 5 15 -10 43 3 35 16 -3 6 -1 7
5 3 11 -6 282 129 282 141 0 3 -8 2 -17 -1 -15 -5 -15 -4 1 9 22 17 40 20 31
5 -10 -15 -5 -14 104 45 57 30 107 55 111 55 5 0 12 5 16 12 5 8 2 9 -10 5
-11 -4 -15 -3 -11 4 4 6 14 8 22 5 8 -3 41 8 73 24 67 34 85 36 154 15 56 -17
78 -19 56 -5 -20 13 -8 12 46 -1 32 -8 42 -14 32 -21 -8 -5 4 -6 30 -2 35 5
42 4 42 -10 0 -9 8 -16 18 -16 15 0 15 2 2 11 -12 8 -10 9 10 5 14 -3 32 -6
40 -6 13 0 13 -1 0 -11 -11 -8 -6 -9 23 -5 20 2 37 1 37 -3 0 -4 55 -20 123
-36 187 -43 508 -120 751 -181 121 -30 221 -52 224 -49 3 3 -1 5 -9 5 -12 0
-12 2 0 9 9 6 -2 12 -35 19 -133 30 -571 132 -834 194 -244 58 -447 104 -588
134 -20 4 -22 7 -12 19 8 10 9 15 2 15 -6 0 -14 -4 -17 -10z m-285 -155 c0 -6
-96 -55 -107 -55 -9 0 87 57 100 59 4 1 7 -1 7 -4z m-190 -100 c0 -6 -76 -45
-87 -45 -4 1 12 12 37 25 50 27 50 27 50 20z m-305 -165 c-3 -5 -12 -10 -18
-10 -7 0 -6 4 3 10 19 12 23 12 15 0z m-33 -264 c153 -38 276 -72 273 -74 -3
-4 -99 17 -360 78 -44 10 -98 22 -120 26 -39 7 -105 31 -105 38 0 8 50 -3 312
-68z m2108 59 c-14 -8 -29 -14 -35 -14 -5 0 1 6 15 14 14 8 30 14 35 14 6 0
-1 -6 -15 -14z m-75 -33 c-14 -12 -65 -32 -65 -26 0 3 15 11 33 19 37 17 45
18 32 7z m150 -41 c3 -5 1 -12 -5 -16 -5 -3 -10 1 -10 9 0 18 6 21 15 7z
m-1658 -117 c-3 -3 -12 -4 -19 -1 -8 3 -5 6 6 6 11 1 17 -2 13 -5z m80 -20
c-3 -3 -12 -4 -19 -1 -8 3 -5 6 6 6 11 1 17 -2 13 -5z m763 -129 c0 -2 -18
-13 -40 -24 -22 -10 -40 -15 -40 -10 0 5 15 15 33 23 35 16 47 19 47 11z
m1147 -117 c-2 -13 -4 -3 -4 22 0 25 2 35 4 23 2 -13 2 -33 0 -45z m-10 -150
c-3 -8 -6 -5 -6 6 -1 11 2 17 5 13 3 -3 4 -12 1 -19z m0 -60 c-3 -8 -6 -5 -6
6 -1 11 2 17 5 13 3 -3 4 -12 1 -19z m0 -100 c-2 -18 -4 -6 -4 27 0 33 2 48 4
33 2 -15 2 -42 0 -60z m-10 -155 c-2 -16 -4 -3 -4 27 0 30 2 43 4 28 2 -16 2
-40 0 -55z m3 -113 c0 -5 -4 -10 -10 -10 -5 0 -10 5 -10 10 0 6 5 10 10 10 6
0 10 -4 10 -10z m-23 -292 c-2 -18 -4 -6 -4 27 0 33 2 48 4 33 2 -15 2 -42 0
-60z m-30 -620 c-3 -8 -6 -5 -6 6 -1 11 2 17 5 13 3 -3 4 -12 1 -19z m3 -92
c0 -8 -4 -17 -9 -21 -6 -3 -9 4 -8 15 1 23 17 28 17 6z m-10 -126 l-7 -75 -1
85 c-1 46 2 80 6 75 5 -6 5 -44 2 -85z m-25 -110 c-3 -5 -49 -34 -101 -62
-114 -63 -116 -65 -179 -104 -28 -17 -102 -61 -165 -98 -117 -68 -223 -134
-347 -217 -82 -54 -102 -66 -88 -51 11 12 100 74 190 132 33 22 74 49 90 60
36 25 118 74 375 225 30 18 89 53 130 78 72 44 108 58 95 37z m-2564 -334 c68
-25 162 -58 209 -76 112 -41 383 -129 540 -175 69 -20 179 -54 245 -75 66 -20
155 -48 198 -60 50 -15 77 -28 77 -38 0 -9 -6 -12 -17 -7 -57 22 -603 194
-763 240 -69 20 -138 42 -155 50 -16 7 -61 21 -100 30 -38 10 -74 24 -78 32
-5 8 -16 12 -25 9 -9 -3 -30 -2 -47 3 -29 9 -29 9 -5 11 14 1 19 4 10 6 -154
49 -199 63 -222 68 -31 7 -38 26 -9 26 10 0 74 -20 142 -44z m-36 -21 c17 -7
23 -14 15 -14 -8 0 -28 6 -45 14 -16 7 -23 14 -15 14 8 0 29 -6 45 -14z m1695
-205 c0 -5 -10 -15 -22 -21 -23 -12 -23 -12 -4 10 21 23 26 26 26 11z m-85
-60 c-3 -5 -10 -10 -16 -10 -5 0 -9 5 -9 10 0 6 7 10 16 10 8 0 12 -4 9 -10z
m-59 -35 c-11 -8 -24 -15 -30 -15 -5 0 -1 7 10 15 10 8 24 14 29 14 6 0 1 -6
-9 -14z m-46 -29 c0 -2 -16 -13 -35 -25 -19 -11 -35 -18 -35 -16 0 5 61 45 68
45 1 0 2 -2 2 -4z m-85 -56 c-3 -5 -16 -15 -28 -21 -21 -10 -21 -9 2 10 25 23
36 27 26 11z"/>
<path d="M5130 5574 c-57 -21 -122 -65 -144 -99 -9 -14 -27 -30 -39 -35 -19
-8 -19 -9 -3 -9 10 -1 35 18 56 42 127 144 366 137 408 -13 9 -31 10 -32 11
-9 1 37 -37 89 -84 113 -52 27 -146 31 -205 10z"/>
<path d="M7628 5513 c7 -3 16 -2 19 1 4 3 -2 6 -13 5 -11 0 -14 -3 -6 -6z"/>
<path d="M4852 5383 c-190 -181 -138 -485 90 -523 62 -10 147 7 179 36 15 13
19 13 33 -1 15 -16 14 -19 -18 -53 -26 -26 -38 -51 -47 -90 -13 -65 -7 -101
26 -158 51 -87 195 -116 302 -61 59 30 76 33 92 13 8 -10 7 -23 -5 -52 -41
-98 46 -174 150 -130 41 17 66 5 66 -32 1 -15 7 -38 16 -52 l15 -25 -7 25 c-4
14 -8 38 -9 53 -1 16 -9 36 -18 45 -15 15 -21 15 -50 2 -47 -20 -111 -18 -136
4 -26 24 -30 113 -6 122 17 7 12 39 -9 59 -15 15 -70 29 -62 16 8 -12 -49 -47
-92 -56 -166 -35 -287 65 -260 215 11 57 54 124 77 117 11 -3 17 2 17 14 0 11
-5 19 -10 19 -5 0 -17 7 -26 15 -14 13 -21 12 -65 -10 -95 -48 -216 -28 -283
49 -45 51 -62 98 -62 170 0 109 42 201 125 274 27 23 43 42 38 42 -6 0 -33
-21 -61 -47z"/>
<path d="M5440 5423 c-24 -5 -81 -43 -63 -43 5 0 14 5 21 12 9 9 12 8 13 -7 0
-18 1 -18 9 3 9 21 32 28 85 22 61 -6 115 -78 115 -154 0 -78 -59 -178 -124
-207 -22 -10 -34 -19 -25 -19 12 0 14 -8 11 -30 -3 -21 2 -37 14 -51 16 -17
26 -19 83 -14 54 5 72 3 100 -13 43 -23 71 -74 71 -127 0 -53 -45 -143 -82
-164 -27 -16 -37 -31 -19 -31 5 0 28 21 50 47 75 85 86 186 27 251 -38 43 -74
55 -143 49 -48 -5 -66 -3 -78 9 -25 25 -17 55 24 95 116 110 137 254 49 336
-40 37 -77 47 -138 36z"/>
<path d="M10000 5360 c0 -5 5 -10 10 -10 6 0 10 5 10 10 0 6 -4 10 -10 10 -5
0 -10 -4 -10 -10z"/>
<path d="M10428 5259 c-10 -87 -86 -151 -182 -153 -65 -1 -106 10 -106 29 0 8
-4 15 -10 15 -5 0 -10 -5 -10 -12 0 -6 -8 -20 -17 -31 -17 -19 -17 -20 5 -8
20 11 22 9 22 -13 0 -63 -61 -116 -132 -116 -54 0 -78 -24 -76 -73 l1 -42 4
37 c5 45 33 68 83 68 36 0 95 30 117 59 7 9 13 33 13 55 0 32 3 37 18 31 40
-17 111 -17 155 0 80 30 148 123 129 175 -8 21 -10 19 -14 -21z"/>
<path d="M9883 5080 c-56 -34 -70 -95 -32 -144 21 -27 28 -73 14 -96 -5 -8 -4
-11 2 -7 25 15 24 59 -2 102 -14 24 -25 52 -25 63 0 27 38 72 74 88 17 7 24
13 16 14 -8 0 -29 -9 -47 -20z"/>
<path d="M11125 4954 c-236 -281 -315 -380 -315 -393 0 -6 -4 -11 -10 -11 -5
0 -10 -3 -10 -7 0 -5 21 -9 48 -10 53 -3 240 -38 249 -47 4 -3 -1 -14 -11 -24
-10 -12 -14 -27 -10 -38 4 -14 3 -15 -4 -6 -7 10 -13 7 -25 -12 -20 -30 -22
-40 -5 -30 7 4 8 3 4 -5 -4 -6 -11 -9 -16 -6 -5 3 -22 -14 -37 -37 -15 -24
-45 -66 -65 -94 -21 -28 -38 -53 -38 -56 0 -3 10 -6 23 -6 25 0 138 -20 144
-26 2 -2 -44 -67 -103 -145 -58 -79 -104 -144 -102 -146 2 -3 80 72 172 164
159 159 182 191 138 191 -28 0 -122 24 -122 31 0 7 57 68 221 235 49 50 89 93
89 96 0 3 -10 6 -22 6 -25 0 -284 41 -307 48 -9 3 -10 8 -3 17 5 6 45 82 87
167 43 85 89 172 102 192 13 21 23 40 23 43 0 16 -24 -6 -95 -91z m-60 -168
c-78 -150 -100 -207 -76 -192 8 6 89 -3 181 -20 28 -4 32 -3 20 6 -13 10 -13
11 2 6 10 -3 40 -8 68 -12 27 -4 50 -10 50 -13 0 -11 -96 -102 -101 -97 -5 5
-219 -228 -219 -238 0 -3 8 -4 18 -4 14 0 143 -30 149 -36 1 -1 -50 -54 -114
-116 l-116 -115 76 102 77 101 -28 6 c-15 3 -53 10 -84 16 l-57 11 35 46 c19
25 50 64 68 87 42 52 54 72 36 61 -8 -5 -11 -3 -8 6 3 8 11 13 17 12 6 -2 17
12 24 30 8 18 22 41 32 50 9 10 16 19 14 21 -16 11 -194 46 -197 38 -2 -6 -21
-8 -45 -5 -57 7 -67 19 -14 16 23 -1 31 1 17 3 -53 10 -53 12 -3 76 74 97 255
318 260 318 2 0 -35 -74 -82 -164z m135 -345 c-11 -21 -30 -37 -30 -25 0 8 30
44 37 44 2 0 -1 -9 -7 -19z"/>
<path d="M11218 4563 c6 -2 18 -2 25 0 6 3 1 5 -13 5 -14 0 -19 -2 -12 -5z"/>
<path d="M11229 4503 c-13 -16 -12 -17 4 -4 16 13 21 21 13 21 -2 0 -10 -8
-17 -17z"/>
<path d="M6359 4868 c0 -40 -2 -93 -4 -118 -5 -86 -6 -1332 -1 -1338 3 -3 6
163 6 369 0 206 3 551 7 767 3 215 3 392 -1 392 -3 0 -6 -33 -7 -72z"/>
<path d="M9920 4830 c0 -11 -12 -25 -26 -33 -15 -8 -23 -17 -18 -20 12 -7 38
12 52 40 15 27 15 33 2 33 -5 0 -10 -9 -10 -20z"/>
<path d="M9840 4810 c-9 -6 -10 -10 -3 -10 6 0 15 5 18 10 8 12 4 12 -15 0z"/>
<path d="M9765 4751 c-41 -25 -62 -51 -70 -86 -6 -24 -2 -21 16 15 18 33 36
51 69 67 25 12 38 22 30 23 -8 0 -28 -8 -45 -19z"/>
<path d="M6505 4620 c3 -5 16 -10 29 -10 13 0 36 -4 52 -9 16 -5 72 -19 124
-31 52 -12 140 -34 195 -50 241 -67 497 -132 501 -127 3 2 -33 14 -78 26 -90
23 -299 79 -418 112 -85 24 -391 99 -403 99 -5 0 -5 -4 -2 -10z"/>
<path d="M9691 4614 c0 -11 3 -14 6 -6 3 7 2 16 -1 19 -3 4 -6 -2 -5 -13z"/>
<path d="M6510 4549 c-3 -30 -4 -105 -2 -166 3 -105 4 -111 25 -116 28 -6 223
-59 401 -108 76 -22 143 -39 149 -39 39 0 -62 31 -303 94 -69 18 -155 41 -192
52 l-68 18 -2 161 c-2 88 -5 135 -8 104z"/>
<path d="M5641 4558 c-1 -31 30 -58 69 -58 54 0 74 -37 59 -111 -12 -56 -1
-109 21 -109 6 0 3 11 -6 25 -11 18 -14 34 -9 57 21 98 0 148 -66 153 -19 2
-37 3 -41 4 -4 1 -12 16 -17 34 -9 31 -9 31 -10 5z"/>
<path d="M7422 4385 c6 -6 249 -75 263 -75 25 1 -30 21 -136 49 -116 31 -137
35 -127 26z"/>
<path d="M7224 4276 c-3 -8 -4 -25 -2 -38 2 -18 9 -23 33 -23 28 0 30 3 30 35
0 31 -3 35 -28 38 -17 2 -29 -2 -33 -12z m54 -31 c-3 -3 -9 2 -12 12 -6 14 -5
15 5 6 7 -7 10 -15 7 -18z m-31 -7 c-3 -8 -6 -5 -6 6 -1 11 2 17 5 13 3 -3 4
-12 1 -19z"/>
<path d="M8776 4268 c4 -13 10 -25 13 -28 64 -48 161 -106 161 -96 0 2 -21 16
-47 31 -56 32 -113 84 -113 102 0 7 -5 13 -11 13 -6 0 -8 -9 -3 -22z"/>
<path d="M7697 4123 c-4 -96 -11 -159 -18 -163 -7 -5 -5 -9 6 -14 9 -3 18 -6
20 -6 2 0 4 77 5 170 0 94 -1 170 -3 170 -2 0 -7 -71 -10 -157z"/>
<path d="M11559 4253 c-13 -16 -12 -17 4 -4 16 13 21 21 13 21 -2 0 -10 -8
-17 -17z"/>
<path d="M5789 4237 c5 -5 19 -7 32 -5 20 3 19 5 -9 9 -20 3 -29 2 -23 -4z"/>
<path d="M7380 4229 c-9 -16 -8 -26 5 -45 8 -13 20 -24 25 -24 13 0 40 30 40
45 0 18 -28 45 -45 45 -8 0 -19 -9 -25 -21z m48 -29 c-2 -6 -8 -6 -18 0 -13 9
-13 11 0 20 15 10 25 0 18 -20z"/>
<path d="M5851 4236 c2 -2 20 -6 39 -10 25 -4 31 -3 20 4 -14 9 -69 15 -59 6z"/>
<path d="M7542 4198 c-28 -28 -3 -85 32 -72 22 8 31 50 16 69 -15 18 -32 19
-48 3z m15 -40 c-3 -8 -6 -5 -6 6 -1 11 2 17 5 13 3 -3 4 -12 1 -19z m33 12
c0 -5 -2 -10 -4 -10 -3 0 -8 5 -11 10 -3 6 -1 10 4 10 6 0 11 -4 11 -10z"/>
<path d="M11435 4140 c-16 -16 -26 -32 -23 -35 3 -3 17 10 32 30 33 43 29 45
-9 5z"/>
<path d="M8960 4139 c0 -13 -11 -60 -25 -104 -14 -43 -24 -84 -21 -89 2 -6 7
3 11 19 13 50 16 49 51 -6 19 -30 34 -49 34 -43 0 7 -15 34 -32 60 l-33 49 19
58 c13 43 15 62 7 70 -8 8 -11 4 -11 -14z"/>
<path d="M7101 4116 c9 -8 541 -157 550 -154 10 3 -525 158 -545 158 -5 0 -7
-2 -5 -4z"/>
<path d="M6511 4106 c2 -2 78 -22 169 -45 91 -23 228 -60 305 -83 77 -22 164
-46 194 -54 29 -8 58 -17 62 -20 5 -3 9 0 9 5 0 6 -3 11 -7 11 -11 0 -189 50
-338 93 -228 67 -413 111 -394 93z"/>
<path d="M6512 3918 c-2 -143 1 -176 11 -172 7 2 69 -12 138 -32 343 -100 426
-124 594 -174 333 -99 440 -127 442 -116 7 40 8 334 1 330 -4 -3 -8 -77 -8
-165 0 -116 -3 -159 -12 -159 -12 0 -264 73 -383 111 -33 10 -145 43 -250 74
-254 74 -302 89 -422 125 l-103 31 -3 162 -3 162 -2 -177z"/>
<path d="M11315 4020 c-3 -5 -1 -10 4 -10 6 0 11 5 11 10 0 6 -2 10 -4 10 -3
0 -8 -4 -11 -10z"/>
<path d="M11539 3943 c-13 -16 -12 -17 4 -4 16 13 21 21 13 21 -2 0 -10 -8
-17 -17z"/>
<path d="M7262 3905 c3 -3 68 -24 144 -46 77 -22 174 -51 217 -64 43 -14 81
-25 85 -25 14 1 -32 23 -62 31 -17 4 -107 30 -201 58 -166 50 -194 56 -183 46z"/>
<path d="M8890 3901 c0 -5 -3 -17 -7 -27 -4 -11 -3 -15 4 -11 14 9 24 47 12
47 -5 0 -9 -4 -9 -9z"/>
<path d="M11399 3873 c-13 -16 -12 -17 4 -4 16 13 21 21 13 21 -2 0 -10 -8
-17 -17z"/>
<path d="M11419 3843 c-13 -16 -12 -17 4 -4 16 13 21 21 13 21 -2 0 -10 -8
-17 -17z"/>
<path d="M11301 3749 c-20 -27 -21 -30 -4 -20 27 14 46 38 35 45 -5 3 -19 -8
-31 -25z"/>
<path d="M7231 3756 c-17 -20 -10 -56 12 -70 15 -9 22 -7 38 13 17 21 18 26 6
45 -18 26 -40 31 -56 12z m16 -38 c-3 -7 -5 -2 -5 12 0 14 2 19 5 13 2 -7 2
-19 0 -25z"/>
<path d="M7384 3706 c-12 -31 0 -61 25 -61 31 0 50 28 35 53 -14 22 -52 28
-60 8z m23 -28 c-3 -8 -6 -5 -6 6 -1 11 2 17 5 13 3 -3 4 -12 1 -19z m25 -10
c-9 -9 -12 -7 -12 12 0 19 3 21 12 12 9 -9 9 -15 0 -24z"/>
<path d="M7542 3668 c-32 -32 2 -87 40 -67 31 17 17 79 -17 79 -6 0 -16 -5
-23 -12z m34 -46 c-17 -16 -18 -16 -5 5 7 12 15 20 18 17 3 -2 -3 -12 -13 -22z"/>
<path d="M4820 3641 c-19 -10 -51 -25 -70 -33 -19 -9 -57 -32 -83 -52 l-49
-37 -84 27 c-94 30 -128 29 -229 -5 -33 -12 -46 -18 -30 -15 34 7 81 12 145
15 l45 2 -35 7 -35 7 41 2 c28 1 44 -4 47 -13 3 -8 14 -14 24 -14 10 1 38 -5
63 -12 40 -11 43 -13 23 -21 -37 -13 -26 -18 13 -6 20 6 43 21 51 34 15 23 41
34 27 11 -4 -7 -3 -8 5 -4 6 4 9 11 6 16 -6 9 43 43 62 43 7 0 9 5 6 10 -4 6
0 8 9 4 9 -3 24 1 35 8 24 19 37 19 29 0 -3 -8 -1 -48 5 -88 5 -39 16 -118 24
-175 12 -97 24 -141 26 -96 0 10 9 -1 19 -26 25 -60 25 -38 0 36 -12 32 -23
79 -26 104 -2 25 -12 78 -21 118 -8 41 -13 96 -11 123 3 27 5 49 4 49 -1 0
-17 -9 -36 -19z"/>
<path d="M6300 3516 c0 -13 7 -26 15 -30 16 -6 18 -2 9 32 -8 29 -24 28 -24
-2z"/>
<path d="M4140 3500 c-59 -14 -102 -17 -205 -13 l-130 5 -110 -41 c-60 -23
-119 -46 -130 -51 -11 -5 -27 -11 -35 -13 -11 -4 -10 -6 3 -6 10 -1 71 20 135
46 129 51 142 53 352 41 69 -3 107 -3 85 1 l-40 7 52 7 c50 7 143 36 113 35
-8 0 -49 -8 -90 -18z"/>
<path d="M4268 3503 c7 -3 16 -2 19 1 4 3 -2 6 -13 5 -11 0 -14 -3 -6 -6z"/>
<path d="M6302 3402 c4 -95 20 -97 23 -2 1 50 -3 71 -12 75 -11 4 -13 -11 -11
-73z"/>
<path d="M3381 3395 c12 -12 104 -11 137 2 16 6 -3 9 -62 8 -57 0 -82 -3 -75
-10z"/>
<path d="M6347 3393 c-11 -10 -8 -313 2 -313 5 0 9 71 9 160 0 88 -1 160 -2
160 -2 0 -6 -3 -9 -7z"/>
<path d="M3374 3338 c20 -23 36 -46 37 -52 4 -70 18 -107 72 -186 50 -72 87
-196 87 -290 0 -32 4 -62 10 -65 6 -4 8 25 5 82 -7 136 -8 137 -87 288 -21 38
-98 240 -98 254 0 6 -14 11 -31 11 l-31 0 36 -42z m16 17 c0 -8 -2 -15 -4 -15
-2 0 -6 7 -10 15 -3 8 -1 15 4 15 6 0 10 -7 10 -15z m74 -185 c5 -19 2 -16
-13 10 -11 19 -20 42 -20 50 0 18 24 -25 33 -60z"/>
<path d="M5737 3280 c-31 -15 -66 -35 -77 -45 -17 -15 -25 -16 -66 -6 -26 7
-50 8 -54 4 -24 -25 -108 -179 -100 -181 11 -4 99 38 106 50 3 4 -1 5 -9 2
-10 -3 -16 4 -20 22 -7 37 11 87 29 80 8 -3 13 0 11 7 -2 14 27 11 60 -5 19
-9 26 -7 47 13 36 36 124 75 137 62 6 -6 15 -51 20 -99 11 -111 19 -120 15
-18 -3 76 -16 126 -33 137 -4 3 -34 -7 -66 -23z m-236 -172 c-9 -24 -41 -47
-41 -29 0 11 41 63 46 58 3 -2 0 -15 -5 -29z"/>
<path d="M4891 3226 c-2 -20 24 -76 35 -76 6 0 19 -17 27 -37 9 -21 16 -32 16
-25 1 17 -37 92 -47 92 -5 0 -13 12 -19 28 -6 15 -11 23 -12 18z"/>
<path d="M4220 3205 c-16 -19 -6 -45 17 -45 10 0 24 -4 32 -9 12 -8 13 -12 1
-26 -7 -9 -19 -14 -27 -11 -7 3 -13 1 -13 -4 0 -14 34 -12 48 2 21 21 13 39
-25 55 l-38 15 24 19 c16 13 19 19 8 19 -8 0 -20 -7 -27 -15z"/>
<path d="M5840 3202 c0 -5 7 -15 16 -23 8 -7 22 -25 30 -40 12 -24 19 -28 44
-23 16 4 45 3 64 0 l34 -7 0 -60 c0 -33 3 -63 6 -66 3 -4 6 28 6 69 l0 76 -66
-2 c-67 -1 -67 -1 -90 36 -24 38 -44 56 -44 40z"/>
<path d="M3830 3169 c-7 -11 -9 -23 -7 -26 3 -2 10 5 17 16 12 24 47 27 76 7
30 -22 27 -111 -5 -137 -13 -10 -27 -19 -31 -19 -22 0 -51 40 -59 80 l-9 45
-1 -38 c-2 -65 34 -104 84 -91 52 13 73 109 34 158 -26 34 -83 37 -99 5z"/>
<path d="M4108 3177 c-16 -12 -15 -18 4 -88 29 -105 28 -102 34 -96 3 3 0 24
-6 47 -10 39 -10 42 14 61 17 13 26 30 26 49 0 39 -38 53 -72 27z m60 -27 c4
-22 -19 -50 -39 -50 -14 0 -20 52 -8 66 18 21 43 13 47 -16z"/>
<path d="M4480 3170 c0 -5 5 -10 11 -10 5 0 7 5 4 10 -3 6 -8 10 -11 10 -2 0
-4 -4 -4 -10z"/>
<path d="M5578 3116 c3 -44 1 -61 -13 -76 -16 -18 -16 -18 4 -13 17 4 21 13
21 43 0 21 2 44 5 52 3 7 -1 22 -8 32 -12 17 -13 12 -9 -38z"/>
<path d="M4410 3150 c0 -5 5 -10 10 -10 6 0 10 5 10 10 0 6 -4 10 -10 10 -5 0
-10 -4 -10 -10z"/>
<path d="M5615 3150 c-3 -5 -2 -10 4 -10 6 0 26 -14 46 -31 20 -18 38 -29 41
-27 2 3 -16 22 -40 42 -26 21 -47 32 -51 26z"/>
<path d="M3992 3124 c-24 -51 15 -97 57 -68 17 12 21 24 19 52 -3 33 -6 37
-34 40 -25 2 -33 -2 -42 -24z m66 -12 c4 -26 -13 -52 -34 -52 -20 0 -33 32
-23 58 12 31 53 27 57 -6z"/>
<path d="M4345 3141 c-3 -5 -1 -12 5 -16 5 -3 10 1 10 9 0 18 -6 21 -15 7z"/>
<path d="M4953 3055 c12 -27 27 -53 32 -57 6 -5 5 -8 -2 -8 -7 0 -10 -7 -6
-16 5 -13 8 -13 15 -2 6 8 7 2 3 -19 -3 -17 -2 -34 3 -37 6 -4 8 3 4 16 -3 14
-2 19 6 14 7 -4 12 -5 12 -2 0 15 -36 92 -49 106 -9 9 -22 25 -28 36 -7 10 -3
-3 10 -31z"/>
<path d="M5841 3054 c0 -11 3 -14 6 -6 3 7 2 16 -1 19 -3 4 -6 -2 -5 -13z"/>
<path d="M5362 3038 c-33 -15 -42 -23 -37 -36 4 -9 8 -21 9 -27 2 -5 8 -29 14
-52 11 -37 10 -48 -16 -115 l-29 -74 45 -40 c54 -48 69 -73 51 -85 -10 -6 -3
-9 19 -9 17 0 32 -4 32 -10 0 -5 -21 -10 -46 -10 -25 0 -43 -4 -40 -8 3 -5 26
-6 52 -2 35 6 47 4 51 -7 4 -11 15 -13 40 -8 24 4 35 2 39 -9 9 -23 31 -26 66
-9 19 10 52 16 78 15 37 -2 42 0 27 9 -10 6 -28 8 -40 5 -21 -5 -21 -4 -4 8
15 12 23 12 48 -1 22 -11 45 -14 77 -9 29 4 43 3 37 -3 -6 -5 -28 -11 -50 -14
-37 -3 -36 -4 11 -5 44 -2 54 2 67 21 33 50 69 77 94 71 13 -4 23 -2 21 2 -6
17 55 126 88 160 29 29 33 37 24 54 -14 25 -23 26 -15 1 4 -14 -3 -25 -24 -41
-17 -11 -30 -24 -29 -28 2 -4 -10 -32 -25 -63 -21 -43 -33 -56 -46 -52 -11 3
-33 -11 -61 -39 -39 -37 -51 -43 -96 -46 -30 -2 -55 1 -59 7 -3 6 -15 11 -27
11 -17 0 -19 2 -8 16 25 29 52 38 62 20 5 -9 14 -16 19 -16 17 0 -1 20 -43 46
-39 25 -68 26 -34 1 15 -11 10 -18 -46 -65 -66 -55 -85 -62 -95 -36 -5 13 -14
15 -44 10 -31 -5 -40 -3 -49 13 -7 13 -7 22 0 26 6 4 5 12 -4 21 -17 16 -30
19 -21 4 12 -20 -12 -9 -35 15 -25 27 -21 32 11 15 10 -6 19 -8 19 -5 0 2 -25
19 -55 36 -61 34 -65 45 -39 109 16 40 29 50 36 28 3 -7 7 -2 10 10 4 12 2 22
-3 22 -5 0 -9 8 -9 18 -1 15 -14 55 -35 106 -6 14 -5 17 3 12 7 -4 12 -2 12 4
0 6 14 16 30 21 17 6 30 15 30 20 0 12 -8 11 -58 -13z"/>
<path d="M5729 3046 c10 -11 22 -15 37 -12 12 3 35 1 51 -4 26 -9 27 -9 9 5
-11 8 -32 15 -47 15 -15 0 -36 3 -46 7 -16 6 -16 5 -4 -11z"/>
<path d="M5850 3024 c0 -6 5 -15 11 -21 14 -14 2 -53 -17 -53 -8 0 -12 -4 -9
-10 3 -5 -3 -29 -13 -53 -17 -39 -18 -47 -5 -68 13 -23 14 -23 8 -1 -5 18 -2
22 14 22 12 0 21 5 21 10 0 6 -7 10 -15 10 -19 0 -19 3 5 51 39 75 41 85 19
105 -10 9 -19 13 -19 8z"/>
<path d="M5556 3001 c-4 -5 -4 -15 -2 -23 2 -7 7 -25 10 -40 6 -25 106 -120
106 -100 0 5 -18 21 -39 36 -43 30 -66 73 -59 111 5 24 -5 34 -16 16z"/>
<path d="M10671 2989 c-17 -39 -68 -92 -81 -84 -7 4 -22 2 -34 -5 -18 -9 -33
-9 -73 3 -50 15 -51 15 -71 -8 -32 -36 -52 -81 -51 -112 0 -15 3 -21 5 -13 25
77 37 101 45 89 5 -9 10 -5 15 15 5 22 11 26 28 22 68 -16 97 -17 111 -6 9 7
19 10 22 6 4 -4 1 -12 -7 -17 -12 -9 -11 -10 5 -6 11 3 28 8 38 12 16 7 17 3
11 -36 -4 -24 -12 -55 -19 -69 -7 -14 -20 -42 -30 -63 -25 -50 -12 -59 14 -9
18 36 33 83 76 247 14 54 12 73 -4 34z m-18 -69 c-3 -11 -12 -20 -19 -20 -12
0 -12 4 -2 20 7 11 16 20 19 20 4 0 5 -9 2 -20z"/>
<path d="M4638 2970 c3 -24 1 -30 -14 -31 -14 -1 -13 -3 5 -8 17 -5 28 -18 35
-45 6 -21 14 -34 18 -30 4 4 4 12 -1 18 -4 6 -11 23 -15 39 -5 22 -2 29 16 37
23 10 23 10 -2 7 -19 -1 -26 3 -28 21 -2 12 -7 22 -11 22 -4 0 -6 -13 -3 -30z"/>
<path d="M5380 2996 c0 -8 71 -48 76 -43 3 2 -11 14 -31 26 -36 21 -45 24 -45
17z"/>
<path d="M6000 2986 c0 -8 5 -18 10 -21 6 -4 20 -24 31 -47 11 -22 22 -38 25
-36 4 5 -10 38 -39 96 -13 25 -27 29 -27 8z"/>
<path d="M10715 2980 c10 -11 25 -20 33 -20 9 0 6 7 -11 20 -14 11 -29 20 -33
20 -4 0 1 -9 11 -20z"/>
<path d="M5515 2950 c-4 -6 -16 -8 -28 -5 -20 6 -20 5 3 -14 14 -11 30 -21 37
-21 6 0 21 -13 33 -30 l21 -29 -30 -53 c-38 -69 -43 -89 -27 -110 12 -16 17
-14 57 24 44 41 40 42 -14 6 -25 -18 -28 -18 -34 -2 -4 10 6 39 25 74 18 32
32 62 32 67 0 6 -16 26 -36 47 -19 20 -32 41 -29 46 3 6 4 10 1 10 -3 0 -8 -5
-11 -10z"/>
<path d="M10800 2918 c28 -38 62 -59 133 -82 26 -8 21 -19 -28 -54 -24 -17
-55 -48 -68 -69 -37 -57 -65 -78 -137 -98 -36 -10 -72 -24 -80 -31 -8 -7 -33
-16 -55 -19 -45 -8 -78 -32 -71 -52 7 -18 -31 -36 -70 -31 -35 4 -35 3 7 -47
9 -11 33 -50 53 -87 l36 -68 -27 0 c-17 0 -36 10 -50 27 -13 14 -23 21 -23 16
0 -6 7 -16 15 -23 30 -25 17 -40 -32 -40 -31 0 -43 -3 -34 -9 7 -5 30 -6 51
-4 21 3 46 1 56 -5 17 -10 16 -12 -13 -22 -51 -18 -39 -30 32 -30 50 0 66 -4
74 -17 8 -15 13 -16 30 -5 12 6 37 12 56 12 22 0 34 4 30 10 -9 15 15 12 31
-4 12 -13 12 -15 -4 -19 -9 -3 6 -5 33 -6 36 0 46 2 35 9 -13 8 -12 10 3 10 9
0 41 -13 70 -29 47 -27 54 -28 71 -15 11 8 28 14 38 14 10 0 17 5 16 11 -2 6
8 13 22 15 13 3 29 10 35 16 7 8 6 9 -4 3 -9 -5 -12 -4 -7 3 4 7 17 10 29 8
12 -1 16 -1 10 1 -21 7 -15 23 15 34 26 10 37 8 107 -18 6 -2 25 10 44 27 20
19 40 29 50 25 12 -4 22 9 41 51 13 31 43 89 66 130 l42 75 -41 37 c-83 75
-98 95 -92 122 3 14 8 44 12 68 l6 42 -54 -2 -54 -2 48 -3 c26 -2 47 -8 47
-12 0 -4 -6 -30 -14 -57 -7 -27 -13 -62 -13 -79 -1 -16 1 -22 4 -12 4 14 16 7
66 -39 34 -31 63 -60 64 -63 2 -3 -13 -17 -32 -30 -33 -22 -92 -107 -82 -118
3 -3 14 12 25 34 19 36 72 95 72 79 0 -18 -89 -174 -94 -163 -2 7 -5 0 -5 -15
-1 -20 -6 -28 -20 -28 -10 0 -31 -10 -46 -21 -25 -20 -31 -21 -79 -10 -55 12
-76 35 -76 84 0 12 -19 40 -42 64 -40 40 -42 45 -28 66 7 12 20 34 27 49 8 15
19 30 24 33 5 4 6 11 3 17 -4 6 -2 8 4 4 6 -3 24 11 41 31 30 36 30 38 11 41
-11 2 -26 12 -33 23 -6 10 -17 19 -23 19 -21 0 -94 106 -94 136 0 2 11 4 24 4
13 0 43 9 67 20 57 25 63 25 79 -5 18 -33 23 -26 7 8 -15 33 -43 35 -98 6 -32
-16 -50 -19 -82 -14 -61 11 -129 49 -150 84 -10 17 -22 31 -28 31 -5 0 5 -19
21 -42z m174 -163 c16 -29 76 -88 120 -117 7 -5 3 -15 -11 -30 -20 -20 -23
-20 -23 -5 0 10 -21 -22 -46 -71 l-46 -90 46 -42 c44 -41 57 -72 36 -85 -15
-9 -12 -25 4 -19 9 3 16 -2 18 -13 5 -22 -44 -73 -69 -73 -14 1 -10 8 15 31
19 17 31 33 27 37 -4 4 -32 -21 -63 -55 -32 -34 -66 -64 -77 -66 -20 -3 -130
46 -141 64 -7 13 -42 10 -86 -5 -21 -8 -38 -12 -38 -9 0 2 10 17 22 33 12 16
19 32 16 36 -3 3 -14 -6 -25 -21 -48 -68 -51 -71 -70 -58 -10 6 -17 17 -15 23
2 7 -4 20 -11 29 -8 9 -18 27 -22 41 -4 14 -13 32 -19 40 -7 8 -25 41 -41 73
-24 49 -27 60 -14 68 7 5 20 9 27 9 7 0 23 5 34 11 17 9 18 13 7 20 -12 8 -12
11 1 19 8 6 26 13 40 16 14 4 32 12 40 19 8 6 38 19 65 27 28 9 59 20 69 24
16 6 18 4 12 -12 -6 -16 -4 -16 17 4 13 12 28 22 34 22 6 0 9 8 7 18 -5 17 86
127 105 127 5 0 13 3 17 8 13 12 19 8 38 -28z m-448 -499 c10 -8 16 -17 12
-21 -8 -8 -48 13 -48 25 0 14 13 12 36 -4z m219 -46 c3 -5 -1 -10 -9 -10 -9 0
-16 5 -16 10 0 6 4 10 9 10 6 0 13 -4 16 -10z"/>
<path d="M10686 2565 c-4 -13 -2 -14 14 -5 23 13 26 20 6 20 -8 0 -16 -7 -20
-15z"/>
<path d="M10666 2517 c4 -12 37 -35 92 -67 8 -4 18 -23 22 -41 l8 -34 1 30 c1
39 -7 50 -51 68 -20 8 -41 25 -48 36 -12 23 -33 29 -24 8z"/>
<path d="M10690 2450 c20 -13 33 -13 25 0 -3 6 -14 10 -23 10 -15 0 -15 -2 -2
-10z"/>
<path d="M10735 2410 c3 -5 8 -10 11 -10 2 0 4 5 4 10 0 6 -5 10 -11 10 -5 0
-7 -4 -4 -10z"/>
<path d="M10746 2335 c4 -8 10 -12 15 -9 14 8 10 24 -6 24 -9 0 -12 -6 -9 -15z"/>
<path d="M10796 2331 c-3 -4 3 -16 14 -26 11 -10 20 -22 20 -27 0 -6 9 -21 20
-35 31 -40 23 -5 -11 49 -33 51 -35 53 -43 39z"/>
<path d="M10696 2307 c-7 -28 -1 -32 23 -15 19 13 19 14 1 25 -15 10 -19 8
-24 -10z"/>
<path d="M10875 2200 c3 -5 8 -10 11 -10 2 0 4 5 4 10 0 6 -5 10 -11 10 -5 0
-7 -4 -4 -10z"/>
<path d="M4545 2910 c-15 -16 -17 -26 -9 -48 12 -33 54 -42 74 -15 12 15 12
16 0 6 -18 -16 -47 -17 -56 -1 -4 6 4 19 20 31 21 15 24 22 15 33 -15 19 -23
18 -44 -6z m35 -10 c0 -5 -2 -10 -4 -10 -2 0 -12 -3 -20 -6 -12 -5 -15 -2 -10
10 7 17 34 22 34 6z"/>
<path d="M5019 2915 c-2 -35 3 -58 21 -100 9 -22 23 -60 30 -85 7 -24 18 -49
25 -55 15 -12 60 -144 51 -152 -3 -4 -6 0 -6 7 0 7 -2 11 -5 8 -7 -7 59 -162
85 -197 12 -17 28 -31 35 -31 8 0 26 -17 41 -37 16 -21 39 -50 53 -65 14 -16
20 -28 14 -28 -5 0 -32 27 -58 60 -49 61 -63 74 -46 42 15 -28 102 -122 113
-122 5 0 6 6 2 13 -4 7 -3 9 2 4 5 -5 9 -12 9 -15 1 -17 18 -32 38 -32 18 0
13 9 -34 53 -30 29 -70 74 -88 100 -17 26 -36 46 -40 44 -5 -1 -9 1 -10 6 -2
23 -33 67 -43 61 -7 -5 -9 -2 -5 8 3 9 2 19 -3 24 -4 5 -22 56 -40 114 -18 58
-39 118 -47 133 -8 16 -16 36 -19 45 -15 59 -74 213 -75 197z m210 -555 c11
-24 11 -24 -3 -6 -9 11 -16 24 -16 30 0 12 5 7 19 -24z"/>
<path d="M4242 2910 c3 -8 13 -45 23 -83 10 -37 20 -66 22 -63 6 6 -29 140
-40 151 -7 7 -8 5 -5 -5z"/>
<path d="M4190 2907 c0 -23 33 -144 42 -152 8 -7 9 -4 4 10 -4 11 -14 46 -21
79 -12 50 -25 83 -25 63z"/>
<path d="M4442 2888 c-17 -17 -15 -67 4 -75 8 -3 20 -1 27 6 18 18 26 13 33
-24 8 -42 -9 -68 -40 -60 -20 5 -20 4 1 -6 17 -9 26 -9 38 1 18 15 19 45 3
108 -14 60 -38 78 -66 50z m38 -20 c0 -13 -5 -30 -10 -38 -14 -23 -34 3 -26
34 8 32 36 35 36 4z"/>
<path d="M4137 2860 c3 -11 7 -20 9 -20 2 0 4 9 4 20 0 11 -4 20 -9 20 -5 0
-7 -9 -4 -20z"/>
<path d="M10844 2845 c11 -8 24 -15 30 -15 5 0 1 7 -10 15 -10 8 -23 14 -29
14 -5 0 -1 -6 9 -14z"/>
<path d="M10590 2839 c0 -5 5 -7 10 -4 6 3 10 8 10 11 0 2 -4 4 -10 4 -5 0
-10 -5 -10 -11z"/>
<path d="M3997 2778 c3 -38 3 -68 0 -68 -4 0 -20 18 -36 40 l-29 41 -10 -53
-9 -53 -31 65 c-17 36 -31 59 -32 53 0 -18 63 -143 72 -143 4 0 8 20 8 45 0
53 10 57 40 15 12 -16 26 -30 31 -30 11 0 11 108 -1 135 -5 12 -6 -7 -3 -47z"/>
<path d="M5732 2828 c-14 -14 -16 -28 -3 -28 9 0 24 30 18 36 -2 2 -9 -2 -15
-8z"/>
<path d="M5875 2830 c3 -5 14 -10 23 -10 15 0 15 2 2 10 -20 13 -33 13 -25 0z"/>
<path d="M10401 2794 c-5 -19 -8 -41 -5 -48 3 -7 -6 -20 -20 -30 -38 -24 -45
-19 -11 9 17 14 24 25 18 25 -7 0 -30 -16 -52 -35 -21 -19 -45 -35 -53 -35
-23 0 -42 -27 -31 -42 6 -7 13 -33 16 -58 7 -53 -11 -229 -25 -247 -7 -9 -2
-14 19 -18 47 -11 73 -24 71 -37 -2 -7 4 -11 12 -9 8 2 27 6 43 9 29 5 34 15
15 36 -11 12 -15 12 -29 0 -13 -12 -21 -12 -57 4 -23 9 -42 20 -42 24 0 4 11
28 25 54 36 67 34 134 -5 206 l-30 56 22 7 c13 4 28 9 33 9 6 1 25 10 43 19
18 10 37 15 42 12 6 -3 10 4 11 17 0 13 2 42 5 66 5 51 -2 54 -15 6z m-106
-245 c10 -43 1 -46 -12 -4 -6 19 -7 35 -3 35 5 0 11 -14 15 -31z m-10 -138
c-8 -17 -17 -31 -20 -31 -7 0 6 75 18 99 l12 25 3 -32 c2 -17 -4 -45 -13 -61z"/>
<path d="M4052 2793 c-20 -39 7 -86 46 -81 14 2 28 10 30 18 5 13 3 13 -11 2
-16 -14 -57 -8 -57 8 0 4 11 15 25 24 14 9 25 23 25 31 0 21 -47 19 -58 -2z
m48 -3 c0 -5 -9 -14 -20 -20 -15 -8 -20 -8 -20 3 0 8 3 17 7 20 10 10 33 8 33
-3z"/>
<path d="M11150 2795 c7 -8 18 -15 24 -15 6 0 5 4 -3 9 -11 7 -9 10 10 14 19
3 17 5 -10 6 -29 1 -32 -1 -21 -14z"/>
<path d="M5346 2784 c-12 -31 3 -34 22 -4 10 16 10 20 -2 20 -8 0 -17 -7 -20
-16z"/>
<path d="M5946 2771 c-18 -33 -20 -51 -8 -51 9 0 34 71 27 78 -2 2 -11 -10
-19 -27z"/>
<path d="M5655 2779 c-11 -17 1 -21 15 -4 8 9 8 15 2 15 -6 0 -14 -5 -17 -11z"/>
<path d="M4927 2743 c9 -55 25 -89 18 -38 -2 22 -5 48 -5 58 0 9 -4 17 -9 17
-6 0 -7 -17 -4 -37z"/>
<path d="M5980 2755 c-13 -14 -22 -27 -19 -29 2 -2 14 10 27 25 29 36 24 38
-8 4z"/>
<path d="M3601 2734 c0 -11 3 -14 6 -6 3 7 2 16 -1 19 -3 4 -6 -2 -5 -13z"/>
<path d="M4834 2720 c2 -23 -2 -39 -13 -48 -14 -11 -14 -12 3 -10 13 2 22 -6
30 -29 6 -17 15 -35 20 -40 5 -5 6 0 1 12 -18 45 -18 73 2 78 15 4 14 5 -4 6
-16 1 -25 10 -33 34 l-10 32 4 -35z"/>
<path d="M11051 2714 c0 -11 3 -14 6 -6 3 7 2 16 -1 19 -3 4 -6 -2 -5 -13z"/>
<path d="M3581 2707 c-1 -10 10 -39 23 -65 13 -26 26 -64 29 -85 3 -21 18 -63
33 -95 14 -31 37 -84 49 -117 12 -33 32 -80 43 -105 12 -25 41 -106 66 -180
25 -74 57 -169 72 -210 15 -41 26 -85 25 -97 0 -13 5 -23 12 -23 6 0 53 21
102 46 101 52 170 74 231 74 23 0 57 7 75 16 34 15 34 15 -31 10 -60 -5 -63
-4 -40 9 29 17 96 20 105 5 4 -6 40 -8 93 -5 58 3 79 2 62 -4 -17 -6 0 -7 50
-4 41 3 86 11 100 18 14 7 45 16 70 20 25 4 84 25 131 46 49 22 102 39 123 39
20 0 36 4 36 9 0 5 18 12 40 16 22 4 40 11 40 17 0 9 -22 7 -74 -9 -11 -3 -16
-1 -12 5 10 17 57 22 120 13 67 -9 125 -2 71 9 -24 5 -15 8 40 14 103 11 126
16 119 28 -5 7 -2 8 5 4 16 -10 83 2 76 14 -7 12 -87 -1 -103 -17 -7 -7 -21
-13 -30 -13 -15 0 -15 2 -2 10 20 13 17 13 -75 -12 -44 -11 -102 -20 -130 -19
-37 2 -67 -6 -119 -30 -39 -18 -99 -43 -135 -56 -37 -13 -52 -21 -36 -18 48 9
7 -12 -61 -31 -42 -11 -121 -17 -269 -21 -145 -4 -220 -10 -244 -19 -18 -8
-47 -14 -63 -14 -27 0 -77 -21 -202 -86 -26 -14 -50 -23 -53 -21 -2 3 -11 38
-20 79 -8 40 -19 80 -25 88 -9 15 -9 15 7 -60 5 -21 4 -20 -8 5 -17 37 -30 98
-19 91 5 -3 1 17 -7 44 -11 32 -18 43 -22 32 -4 -12 -9 -7 -17 18 -15 42 -15
53 0 44 8 -5 9 -2 3 12 -4 10 -18 46 -31 79 -42 111 -45 118 -50 112 -3 -3 2
-19 10 -36 9 -16 16 -38 16 -48 -1 -10 -12 9 -25 41 -29 68 -29 70 -13 60 8
-5 9 -2 4 12 -5 10 -11 27 -13 37 -3 9 -11 17 -18 17 -13 0 -28 29 -56 109
-22 64 -24 86 -4 51 18 -32 19 -13 1 22 -8 15 -17 41 -21 59 -5 22 -10 28 -16
18 -6 -10 -10 -7 -17 11 -21 57 -20 56 -21 37z m1057 -814 c-10 -2 -28 -2 -40
0 -13 2 -5 4 17 4 22 1 32 -1 23 -4z m-473 -43 c-28 -12 -37 -12 -30 0 3 6 16
10 28 9 21 0 21 -1 2 -9z m-106 -45 c-9 -9 -99 -54 -99 -50 0 9 75 55 89 55 8
0 12 -2 10 -5z"/>
<path d="M3611 2694 c0 -11 3 -14 6 -6 3 7 2 16 -1 19 -3 4 -6 -2 -5 -13z"/>
<path d="M5945 2700 c3 -5 8 -10 11 -10 2 0 4 5 4 10 0 6 -5 10 -11 10 -5 0
-7 -4 -4 -10z"/>
<path d="M5615 2690 c11 -5 31 -9 45 -9 20 -1 22 1 10 9 -8 5 -28 9 -45 9 -26
0 -27 -2 -10 -9z"/>
<path d="M4781 2648 c-1 -21 18 -72 24 -66 3 3 -1 22 -9 44 -8 21 -15 31 -15
22z"/>
<path d="M5091 2644 c0 -11 3 -14 6 -6 3 7 2 16 -1 19 -3 4 -6 -2 -5 -13z"/>
<path d="M10546 2635 c4 -8 10 -12 15 -9 14 8 10 24 -6 24 -9 0 -12 -6 -9 -15z"/>
<path d="M7413 2630 c-29 -12 -53 -60 -53 -107 1 -61 47 -103 113 -103 80 0
118 116 60 179 -30 33 -83 46 -120 31z m106 -31 c11 -11 24 -32 27 -46 9 -32
-15 -105 -36 -111 -12 -4 -11 -1 2 15 42 47 26 136 -27 149 -14 3 -25 10 -25
14 0 13 36 0 59 -21z m-79 14 c-8 -3 -23 -12 -32 -21 -11 -9 -18 -11 -18 -4 0
13 29 32 50 31 13 -1 13 -1 0 -6z m60 -33 c39 -39 17 -130 -31 -130 -31 0 -49
12 -65 42 -38 73 40 144 96 88z m-100 -114 c0 -6 -7 -2 -15 8 -8 11 -15 25
-15 30 0 6 7 2 15 -8 8 -11 15 -25 15 -30z"/>
<path d="M4611 2603 c-6 -10 -11 -12 -11 -5 0 6 -4 12 -9 12 -10 0 10 -65 24
-77 4 -5 5 0 2 10 -10 26 2 67 19 67 8 0 17 -13 21 -30 3 -16 9 -30 14 -30 15
0 -17 65 -33 68 -9 2 -21 -5 -27 -15z"/>
<path d="M4950 2610 c0 -5 5 -10 10 -10 6 0 10 5 10 10 0 6 -4 10 -10 10 -5 0
-10 -4 -10 -10z"/>
<path d="M4316 2580 c4 -19 2 -30 -5 -30 -6 0 -11 -4 -11 -10 0 -5 7 -7 15 -4
11 5 17 -3 21 -25 4 -17 11 -34 15 -37 12 -7 11 -4 -3 36 -10 29 -9 35 8 48
18 13 18 14 -3 7 -19 -5 -23 -2 -23 14 0 11 -4 23 -10 26 -6 4 -7 -6 -4 -25z"/>
<path d="M5805 2600 c3 -5 8 -10 11 -10 2 0 4 5 4 10 0 6 -5 10 -11 10 -5 0
-7 -4 -4 -10z"/>
<path d="M11262 2590 c0 -14 2 -19 5 -12 2 6 2 18 0 25 -3 6 -5 1 -5 -13z"/>
<path d="M4501 2581 c-15 -28 2 -71 29 -71 27 0 48 45 33 68 -15 25 -50 27
-62 3z m54 -12 c8 -24 -16 -55 -34 -45 -12 8 -15 49 -4 59 13 14 32 7 38 -14z"/>
<path d="M4203 2515 c11 -41 23 -75 27 -75 3 0 6 16 7 36 1 19 4 38 8 42 9 9
35 -28 35 -50 0 -10 5 -18 10 -18 13 0 13 1 -5 44 -16 37 -41 48 -51 21 -9
-23 -21 -9 -28 35 -3 22 -10 40 -15 40 -4 0 1 -34 12 -75z"/>
<path d="M5110 2583 c0 -4 5 -15 10 -23 8 -13 10 -13 10 2 0 9 -4 20 -10 23
-5 3 -10 3 -10 -2z"/>
<path d="M4035 2530 c3 -5 8 -10 11 -10 2 0 4 5 4 10 0 6 -5 10 -11 10 -5 0
-7 -4 -4 -10z"/>
<path d="M3680 2503 c0 -14 29 -83 35 -83 3 0 -3 19 -12 43 -18 47 -23 55 -23
40z"/>
<path d="M4122 2498 c-17 -17 -15 -67 3 -75 9 -3 24 2 34 11 17 16 19 15 28
-22 13 -51 1 -76 -34 -67 -16 4 -22 2 -18 -5 3 -5 17 -10 31 -10 37 0 47 37
28 102 -23 76 -43 95 -72 66z m38 -28 c0 -23 -4 -30 -20 -30 -14 0 -20 7 -20
23 0 27 7 37 27 37 8 0 13 -12 13 -30z"/>
<path d="M11251 2478 c0 -16 2 -18 6 -8 3 8 11 18 17 22 7 5 4 8 -6 8 -12 0
-18 -7 -17 -22z"/>
<path d="M4056 2455 c3 -22 10 -44 15 -49 12 -13 11 -9 -6 44 l-15 45 6 -40z"/>
<path d="M3973 2464 c-4 -12 -7 -13 -14 -3 -16 27 -18 1 -2 -39 20 -52 30 -54
25 -5 -3 27 0 40 14 50 16 12 16 13 1 13 -10 0 -20 -7 -24 -16z"/>
<path d="M11058 2463 c-27 -2 -48 -8 -48 -12 0 -8 118 4 127 13 4 3 -2 5 -13
4 -10 -1 -40 -3 -66 -5z"/>
<path d="M9399 2303 c-18 -26 -44 -63 -56 -81 -11 -19 -30 -39 -41 -46 -74
-43 -104 -56 -138 -58 -47 -3 -69 -20 -56 -45 5 -10 13 -43 16 -73 6 -51 4
-61 -32 -132 l-40 -76 29 -21 c15 -12 35 -21 44 -21 8 0 19 -10 24 -22 11 -28
56 -68 95 -86 24 -11 27 -15 15 -23 -12 -7 -11 -9 3 -9 9 0 18 8 20 18 2 12 9
6 24 -23 15 -28 27 -39 40 -37 36 6 90 6 206 0 97 -6 119 -4 129 8 18 22 64
44 93 44 20 0 24 4 21 22 -3 12 3 27 13 34 12 10 13 13 3 14 -7 0 -31 -14 -53
-31 -21 -17 -41 -30 -43 -27 -2 2 12 23 31 47 36 46 38 51 27 51 -5 0 -30 -34
-58 -75 -27 -41 -55 -75 -62 -75 -7 0 -10 7 -6 16 5 14 3 14 -16 3 -17 -11
-25 -11 -41 -1 -11 6 -29 12 -39 12 -11 0 -23 5 -26 10 -9 15 -42 12 -75 -5
-17 -9 -30 -12 -30 -7 0 12 34 42 48 42 7 0 12 3 12 8 0 4 24 20 53 37 36 20
47 30 34 33 -9 2 -29 -6 -45 -18 -99 -76 -132 -100 -138 -100 -4 0 -13 -8 -20
-17 -7 -10 -16 -14 -21 -9 -4 5 -2 11 5 14 9 3 6 8 -10 16 -12 6 -27 26 -33
44 -5 17 -13 32 -17 32 -4 0 -8 5 -8 12 0 6 -10 22 -22 35 -18 19 -20 26 -9
32 9 6 5 10 -13 13 -34 7 -40 -4 -15 -26 15 -12 19 -24 15 -42 -4 -14 -2 -24
4 -24 6 0 8 6 4 13 -5 8 -2 8 9 -2 9 -7 17 -20 17 -28 0 -31 -73 10 -107 60
-10 15 -27 30 -37 33 -11 4 -28 14 -38 24 -17 15 -17 18 -3 30 8 7 15 19 15
26 0 23 44 100 48 83 1 -8 -4 -28 -12 -44 -16 -30 -15 -42 2 -31 28 17 24 172
-4 201 -15 15 -19 40 -5 31 5 -3 11 1 15 9 3 8 17 15 31 15 15 0 35 5 46 10
14 8 19 7 19 -2 0 -6 15 2 33 20 18 18 37 32 43 32 5 0 29 30 53 66 52 79 61
73 59 -39 0 -46 4 -83 11 -90 18 -18 13 -25 -35 -47 -58 -25 -59 -25 -37 4 10
13 21 19 24 14 4 -7 9 -7 13 0 3 5 -1 13 -9 16 -15 6 -24 -2 -69 -59 l-24 -30
-54 22 c-49 21 -51 21 -26 3 14 -11 43 -36 64 -54 22 -19 41 -30 45 -25 3 5
14 0 24 -11 10 -11 24 -20 30 -20 7 0 15 -7 19 -15 3 -8 0 -15 -7 -15 -7 0
-12 -14 -13 -33 0 -17 -12 -58 -27 -90 -14 -31 -23 -57 -19 -57 11 0 64 111
58 118 -3 3 -2 10 3 16 5 6 11 25 14 41 5 27 1 34 -36 60 -61 45 -59 59 15 96
69 35 82 47 67 66 -10 11 -30 203 -22 213 2 2 12 -1 21 -8 9 -7 32 -22 51 -34
19 -12 29 -24 23 -26 -7 -2 -12 -7 -12 -12 0 -5 42 13 92 40 l93 48 31 -66 30
-67 -23 -53 c-13 -29 -23 -59 -23 -67 0 -7 -11 -26 -24 -42 -13 -15 -31 -42
-40 -60 -9 -17 -29 -40 -46 -50 -16 -9 -30 -22 -30 -27 0 -6 8 -3 17 7 16 16
19 15 41 -11 17 -20 19 -21 10 -4 -10 18 -10 25 0 40 7 9 21 36 31 58 11 23
24 44 29 48 5 3 20 35 33 71 23 67 39 83 39 41 0 -14 5 -28 11 -32 8 -4 9 0 4
15 -5 15 -2 21 9 21 26 0 76 -53 78 -82 3 -34 18 -37 18 -4 0 33 -45 84 -81
94 -26 6 -34 18 -64 91 -19 46 -37 86 -40 89 -3 3 -42 -13 -87 -35 -91 -46
-94 -45 -164 19 l-30 28 -35 -47z m-75 -319 c9 -24 4 -25 -24 -4 -24 19 -24
20 -4 20 12 0 25 -7 28 -16z m250 -406 c-3 -4 -14 -3 -25 3 -11 5 -30 7 -42 4
-21 -7 -21 -6 -3 7 15 12 26 13 47 5 15 -6 26 -15 23 -19z m-104 12 c0 -5 -7
-10 -15 -10 -8 0 -15 5 -15 10 0 6 7 10 15 10 8 0 15 -4 15 -10z"/>
<path d="M10455 2339 c-4 -6 -5 -12 -2 -15 2 -3 7 2 10 11 7 17 1 20 -8 4z"/>
<path d="M4602 2300 c-6 -10 -8 -21 -3 -24 5 -3 11 4 14 16 8 29 4 32 -11 8z"/>
<path d="M4711 2304 c0 -11 3 -14 6 -6 3 7 2 16 -1 19 -3 4 -6 -2 -5 -13z"/>
<path d="M6547 2259 c7 -7 15 -10 18 -7 3 3 -2 9 -12 12 -14 6 -15 5 -6 -5z"/>
<path d="M10300 2250 c-13 -8 -12 -10 3 -10 9 0 17 5 17 10 0 12 -1 12 -20 0z"/>
<path d="M4480 2246 c0 -2 8 -10 18 -17 15 -13 16 -12 3 4 -13 16 -21 21 -21
13z"/>
<path d="M4691 2243 c-1 -6 -4 -20 -7 -30 -5 -17 -5 -17 6 0 6 10 9 23 6 30
-3 9 -5 9 -5 0z"/>
<path d="M4520 2216 c0 -3 9 -10 20 -16 11 -6 20 -8 20 -6 0 3 -9 10 -20 16
-11 6 -20 8 -20 6z"/>
<path d="M10635 2160 c-19 -8 -19 -9 3 -9 12 -1 22 4 22 9 0 6 -1 10 -2 9 -2
0 -12 -4 -23 -9z"/>
<path d="M9484 2139 c-19 -22 -19 -22 4 -8 12 8 22 17 22 21 0 12 -6 9 -26
-13z"/>
<path d="M10783 2123 c9 -2 23 -2 30 0 6 3 -1 5 -18 5 -16 0 -22 -2 -12 -5z"/>
<path d="M9920 2051 c0 -6 9 -11 20 -11 30 0 110 -23 110 -32 0 -10 -132 -108
-207 -153 -32 -19 -54 -35 -49 -35 16 0 120 63 177 107 30 24 58 43 61 43 7 0
-69 -149 -83 -165 -5 -5 -9 -26 -9 -46 0 -35 -3 -38 -66 -70 -54 -28 -62 -35
-43 -37 13 -2 25 1 27 7 5 15 56 41 82 41 17 0 20 6 20 48 1 37 12 70 59 160
34 66 54 115 47 117 -6 1 -36 8 -66 15 -30 7 -61 15 -67 17 -7 3 -13 0 -13 -6z"/>
<path d="M3420 2000 c0 -5 5 -10 10 -10 6 0 10 5 10 10 0 6 -4 10 -10 10 -5 0
-10 -4 -10 -10z"/>
<path d="M3598 2003 c7 -3 16 -2 19 1 4 3 -2 6 -13 5 -11 0 -14 -3 -6 -6z"/>
<path d="M3770 1999 c0 -5 9 -9 20 -9 11 0 20 2 20 4 0 2 -9 6 -20 9 -11 3
-20 1 -20 -4z"/>
<path d="M9880 1961 c0 -5 5 -13 10 -16 6 -3 10 -2 10 4 0 5 -4 13 -10 16 -5
3 -10 2 -10 -4z"/>
<path d="M3818 1953 c7 -3 16 -2 19 1 4 3 -2 6 -13 5 -11 0 -14 -3 -6 -6z"/>
<path d="M3670 1941 c0 -6 4 -13 10 -16 6 -3 7 1 4 9 -7 18 -14 21 -14 7z"/>
<path d="M3746 1891 c-3 -5 1 -12 10 -15 22 -8 25 -4 9 11 -8 7 -16 9 -19 4z"/>
<path d="M3811 1896 c12 -10 60 -16 54 -6 -3 5 -18 10 -32 10 -15 0 -24 -2
-22 -4z"/>
<path d="M9947 1884 c-4 -4 -7 -19 -6 -33 l0 -26 10 24 c10 26 8 47 -4 35z"/>
<path d="M9694 1841 c15 -16 43 -37 62 -47 26 -14 34 -24 30 -39 -5 -20 -5
-20 9 -1 8 11 15 22 15 25 0 3 -23 17 -50 30 -28 13 -55 32 -61 42 -5 11 -15
19 -21 19 -7 0 1 -13 16 -29z"/>
<path d="M4388 1853 c12 -2 30 -2 40 0 9 3 -1 5 -23 4 -22 0 -30 -2 -17 -4z"/>
<path d="M9470 1850 c-13 -8 -13 -10 2 -10 9 0 20 5 23 10 8 13 -5 13 -25 0z"/>
<path d="M9685 1770 c-3 -6 1 -7 9 -4 18 7 21 14 7 14 -6 0 -13 -4 -16 -10z"/>
<path d="M9624 1754 c-18 -14 -18 -14 6 -3 31 14 36 19 24 19 -6 0 -19 -7 -30
-16z"/>
<path d="M5828 1733 c-15 -2 -41 -20 -58 -39 -25 -29 -30 -43 -30 -88 0 -74
30 -118 90 -130 32 -7 45 -6 48 2 2 7 12 12 23 12 12 0 23 10 29 25 5 14 14
25 20 25 6 0 8 5 5 10 -3 6 3 10 14 10 12 0 21 5 21 12 0 8 3 9 11 1 6 -6 26
-7 52 -2 23 4 45 5 49 3 5 -3 8 -1 8 4 0 5 12 10 26 10 14 0 35 9 47 20 17 17
18 23 7 36 -7 9 -24 16 -39 16 -15 0 -32 5 -39 12 -7 7 -12 8 -12 2 0 -6 -31
-10 -73 -9 -69 0 -75 2 -102 32 -32 34 -54 42 -97 36z m72 -23 c33 -17 53
-114 31 -149 -10 -16 -15 -4 -25 73 -3 21 -15 49 -27 62 -23 25 -12 32 21 14z
m-32 -23 c55 -59 29 -197 -38 -197 -20 0 -59 40 -64 66 -2 10 -6 25 -8 33 -4
17 13 23 32 11 12 -7 12 -12 2 -22 -6 -6 -12 -16 -12 -22 0 -6 5 -5 12 2 17
17 28 15 28 -4 0 -23 24 -11 28 14 2 12 8 22 13 22 5 0 9 9 9 21 0 15 -5 19
-15 15 -10 -4 -15 1 -15 14 0 26 -26 26 -33 0 -7 -26 -47 -27 -47 -1 0 28 39
71 64 71 12 0 32 -10 44 -23z m150 -39 c16 -16 15 -38 -2 -38 -13 0 -26 20
-26 41 0 13 14 11 28 -3z m59 -18 c15 -30 11 -35 -16 -20 -12 6 -21 20 -21 31
0 27 21 20 37 -11z m53 -1 c0 -10 -6 -19 -14 -19 -15 0 -29 27 -21 40 9 15 35
-1 35 -21z m-150 1 c9 -16 8 -20 -5 -20 -8 0 -15 2 -15 4 0 2 -3 11 -6 20 -9
23 13 20 26 -4z m198 11 c10 -6 10 -11 -3 -21 -14 -12 -18 -11 -26 1 -17 28
-1 40 29 20z"/>
<path d="M9190 1730 c0 -5 5 -10 10 -10 6 0 10 5 10 10 0 6 -4 10 -10 10 -5 0
-10 -4 -10 -10z"/>
<path d="M9316 1677 c3 -10 9 -15 12 -12 3 3 0 11 -7 18 -10 9 -11 8 -5 -6z"/>
<path d="M9150 1650 c0 -13 20 -13 40 0 12 8 9 10 -12 10 -16 0 -28 -4 -28
-10z"/>
<path d="M8265 1617 c-97 -38 -115 -116 -35 -157 73 -37 193 -24 253 28 25 22
22 74 -6 100 -43 41 -146 54 -212 29z m134 -6 c24 -5 53 -18 65 -30 l21 -22
-27 -24 c-63 -55 -248 -34 -248 28 0 23 70 54 125 56 11 0 40 -4 64 -8z m-164
-111 c18 0 23 -4 18 -15 -5 -14 -8 -14 -27 -2 -11 8 -21 21 -22 28 -1 10 0 10
3 2 3 -7 15 -13 28 -13z m245 10 c0 -8 -51 -40 -65 -40 -15 0 -2 21 23 33 34
18 42 20 42 7z m-80 -35 c0 -19 -60 -21 -61 -2 0 10 -2 10 -6 0 -7 -19 -63
-17 -63 2 0 12 14 15 65 15 51 0 65 -3 65 -15z"/>
<path d="M8297 1579 c-41 -24 35 -53 87 -33 9 3 16 12 16 19 0 25 -68 34 -103
14z m83 -19 c0 -5 -13 -10 -29 -10 -17 0 -33 5 -36 10 -4 6 8 10 29 10 20 0
36 -4 36 -10z"/>
<path d="M9200 1620 c-12 -8 -9 -10 13 -10 15 0 27 5 27 10 0 13 -20 13 -40 0z"/>
<path d="M9858 1603 c7 -3 16 -2 19 1 4 3 -2 6 -13 5 -11 0 -14 -3 -6 -6z"/>
</g>
</svg>
